<svg width="650" height="460" viewBox="0 0 650 460" fill="none" xmlns="http://www.w3.org/2000/svg">
<path d="M102.6 95.8871L97.5781 93.9094L96.0923 90.9575L91.4269 102.352L78.6192 90.9575L69.7044 93.9094L104.472 133.228L102.6 95.8871ZM231.954 247.908H169.283L158.377 215.438C157.324 212.303 155.306 209.576 152.608 207.642C149.91 205.709 146.668 204.667 143.341 204.663H11.4609C9.80321 204.669 8.16634 205.031 6.66245 205.723C5.15856 206.416 3.8232 207.423 2.74788 208.677C1.67256 209.93 0.882691 211.399 0.432402 212.984C-0.0178861 214.569 -0.11795 216.231 0.139066 217.858L38.4134 448.104C38.8627 450.766 40.2461 453.183 42.3185 454.928C44.3909 456.674 47.0183 457.634 49.7352 457.638H313.139L256.173 265.767C254.607 260.599 251.404 256.07 247.042 252.853C242.679 249.635 237.388 247.901 231.954 247.908V247.908ZM650 275.42V459.705H422.375L432.389 330.354C432.861 324.29 435.622 318.628 440.119 314.501C444.615 310.374 450.515 308.086 456.637 308.097H506.085L525.638 256.734C528.542 249.108 533.719 242.543 540.479 237.917C547.238 233.291 555.258 230.824 563.467 230.846H605.069C610.967 230.839 616.808 231.986 622.259 234.222C627.71 236.459 632.664 239.741 636.837 243.881C641.01 248.021 644.32 252.937 646.579 258.349C648.837 263.76 650 269.561 650 275.42V275.42Z" fill="#3B5998"/>
<path d="M166.698 397.716L215.016 457.609H285.384L222.98 314.089L166.698 397.716ZM433.518 357.57C440.888 347.18 449.208 335.195 453.072 328.996C460.53 317.041 474.081 308.599 484.125 307.979H456.638C451.108 307.96 445.738 309.816 441.415 313.24C437.093 316.665 434.076 321.453 432.865 326.812L432.686 327.579C432.672 327.835 432.672 328.091 432.686 328.347C432.686 328.996 432.478 329.616 432.419 330.265L424.188 436.828H433.548V357.688L433.518 357.57ZM422.939 452.296L422.375 459.616H650V452.296H422.939ZM182.239 250.299L161.438 317.513C161.438 317.513 155.495 296.585 149.552 274.859C143.608 253.133 134.693 249.119 117.131 249.119H55.5298L54.6978 243.717H207.26L206.696 240.322H212.163L199.772 253.399L182.239 250.299Z" fill="#F6FCFB"/>
<path d="M331.176 443.942C323.688 439.219 305.026 432.843 305.026 432.843L295.309 448.163H263.156C263.156 448.163 264.166 457.668 269.426 457.668H327.937C335.693 457.609 338.665 448.665 331.176 443.942ZM170.709 379.709L162.3 353.792C158.912 354.914 152.761 357.688 154.9 367.4C157.04 377.112 165.836 408.903 169.521 415.604C173.205 422.305 180.872 417.729 181.793 412.859C182.715 407.988 185.448 395.826 187.291 385.052C181.021 377.053 170.65 379.709 170.65 379.709H170.709ZM188.182 163.219H224.258L231.657 147.397L206.517 134.055L188.182 163.219ZM56.1241 182.584L47.2093 163.396L36.4818 191.085L54.3114 208.442L56.1241 182.584ZM166.074 162.865H134.04L101.768 221.902C93.4988 222.074 85.2452 222.695 77.0442 223.762L68.9912 235.658H55.5595V243.953C55.5595 243.953 21.6535 222.493 12.4712 213.755C3.28895 205.018 1.83286 186.775 4.47759 176.473C7.12232 166.171 13.3924 140.756 19.3356 126.055C21.8184 119.986 25.6121 114.533 30.449 110.08C35.2859 105.627 41.0479 102.284 47.3282 100.285C57.3128 97.0974 69.7341 93.9094 69.7341 93.9094L104.472 133.228L102.6 95.8872C102.6 95.8872 125.689 106.307 131.336 109.23C136.982 112.152 146.639 115.635 151.216 127.649C155.792 139.663 166.014 162.865 166.014 162.865H166.074ZM365.409 452.561C365.383 455.331 366.449 458.002 368.381 460H433.756V452.561H365.409ZM525.252 257.089L506.144 308.038H410.488C423.088 342.191 433.281 381.657 433.281 381.657V414.394H393.045C393.045 414.394 361.07 337.409 351.858 311.433C342.647 285.456 359.228 261.457 378.335 254.166C397.443 246.875 435.687 235.363 435.687 235.363L473.873 236.839L525.252 257.089Z" fill="white"/>
<path d="M291.713 424.637C287.404 417.523 244.168 296.968 244.168 296.968C249.212 289.221 253.425 280.97 256.737 272.35C258.21 268.848 258.783 265.038 258.406 261.261C258.029 257.485 256.713 253.86 254.577 250.714C252.441 247.568 249.551 244.998 246.168 243.236C242.785 241.473 239.013 240.573 235.193 240.617C218.315 240.617 212.044 240.617 212.044 240.617L199.683 253.694L182.358 250.417L161.557 317.631L184.141 315.152C184.141 315.152 176.593 327.284 172.255 336.553C169.363 342.585 165.879 348.32 161.854 353.674L170.472 379.709C173.454 379.249 176.505 379.493 179.375 380.421C182.245 381.349 184.855 382.936 186.994 385.052C186.994 385.052 189.52 373.628 193.472 368.285C197.424 362.943 209.281 345.467 209.281 345.467C209.281 345.467 254.42 421.773 257.956 430.334C260.251 436.046 261.934 441.982 262.978 448.045H295.309L304.937 432.843C302.284 432.449 299.741 431.517 297.466 430.106C295.191 428.694 293.233 426.832 291.713 424.637V424.637ZM73.4189 224.411C69.854 227.074 67.2905 230.847 66.1384 235.127L95.4385 235.363L101.768 221.843C83.9681 219.393 73.4189 224.411 73.4189 224.411ZM113.744 48.4802L113.476 36.9088L98.6181 23.5664C91.1216 30.9807 81.4801 35.8829 71.0416 37.5878C68.6346 51.7567 62.4834 55.6237 62.4834 55.6237L58.2934 48.0079C56.0499 48.7126 54.1558 50.2308 52.9884 52.2603C51.8209 54.2897 51.4658 56.6814 51.9936 58.9593C53.3308 67.8149 69.8232 93.9979 69.8232 93.9979L78.7381 91.0461L91.5457 102.44L96.2111 91.0461L97.6969 93.9979V87.0611C102.475 85.4137 106.609 82.3151 109.516 78.2041C112.423 74.093 113.954 69.1779 113.892 64.1546C115.584 63.1829 116.908 61.6859 117.66 59.8938C118.411 58.1017 118.549 56.1139 118.052 54.2363C116.21 47.4765 113.744 48.4802 113.744 48.4802V48.4802ZM231.33 140.903C237.345 140.405 243.308 139.418 249.16 137.951C255.905 135.944 269.664 123.428 269.426 120.063C269.188 116.698 264.226 116.491 260.511 117.111C255.255 118.885 250.14 121.046 245.208 123.576H222.326C212.193 123.576 206.517 134.025 206.517 134.025L228.626 145.272L231.33 140.903ZM545.162 23.773C525.192 2.43103 487.691 14.9174 482.758 31.8316C479.55 42.4848 478.026 53.5683 478.241 64.6859C478.39 68.2282 474.972 73.5415 475.269 75.165C475.567 76.7886 480.054 77.1723 480.054 77.1723C480.054 77.1723 481.153 89.6587 488.137 95.3558C495.12 101.053 511.077 98.1306 511.077 98.1306L513.039 104.241H547.123L542.666 83.9026C542.666 83.9026 565.161 45.1445 545.162 23.773ZM446.237 192.472L486.829 202.892C486.829 202.892 484.452 217.327 482.461 226.33C480.47 235.333 473.784 236.632 473.784 236.632C470.369 238.704 466.569 240.069 462.61 240.647C454.973 242.093 437.679 238.846 426.387 230.906C415.094 222.965 379.643 196.989 379.643 196.989C379.643 196.989 361.249 196.634 356.702 196.457C352.156 196.28 346.331 196.457 342.884 194.125C340.226 192.458 337.781 190.475 335.604 188.222C333.762 186.244 336.703 184.237 338.873 185.27C341.042 186.303 345.797 187.808 345.797 187.808L354.89 187.07C354.89 187.07 354.89 183.823 356.881 182.761C358.872 181.698 364.547 179.13 371.085 175.322C374.199 173.335 377.776 172.177 381.471 171.96C385.166 171.743 388.855 172.473 392.183 174.082C400.385 177.506 446.475 198.228 446.475 198.228L446.237 192.472Z" fill="#F79A91"/>
<path d="M401.692 79.1796L325.916 78.0579C325.719 78.0579 325.53 78.1356 325.391 78.274C325.252 78.4124 325.173 78.6001 325.173 78.7958C325.173 78.9916 325.252 79.1793 325.391 79.3177C325.53 79.456 325.719 79.5338 325.916 79.5338L401.663 80.626C401.852 80.626 402.033 80.5514 402.167 80.4185C402.301 80.2856 402.376 80.1054 402.376 79.9175C402.376 79.7316 402.306 79.5523 402.18 79.4155C402.053 79.2787 401.879 79.1944 401.692 79.1796ZM402.049 62.5901L325.203 61.2027C325.035 61.2366 324.884 61.3271 324.776 61.4589C324.667 61.5907 324.608 61.7557 324.608 61.9259C324.608 62.0961 324.667 62.2611 324.776 62.3929C324.884 62.5247 325.035 62.6152 325.203 62.6491L402.049 64.1251C402.143 64.1251 402.235 64.1067 402.322 64.0711C402.408 64.0355 402.487 63.9833 402.553 63.9176C402.619 63.8518 402.672 63.7737 402.708 63.6877C402.744 63.6018 402.762 63.5096 402.762 63.4166C402.786 63.3135 402.784 63.2063 402.759 63.1037C402.733 63.0011 402.684 62.9059 402.614 62.8256C402.545 62.7453 402.458 62.6822 402.36 62.6413C402.262 62.6005 402.155 62.5829 402.049 62.5901V62.5901ZM402.435 46.7386L325.56 45.6168C325.363 45.6168 325.174 45.6946 325.034 45.833C324.895 45.9714 324.817 46.1591 324.817 46.3548C324.817 46.5505 324.895 46.7382 325.034 46.8766C325.174 47.015 325.363 47.0928 325.56 47.0928L402.406 48.185C402.499 48.185 402.592 48.1666 402.678 48.131C402.765 48.0954 402.844 48.0433 402.91 47.9775C402.976 47.9117 403.029 47.8336 403.064 47.7476C403.1 47.6617 403.119 47.5696 403.119 47.4765C403.119 47.2906 403.049 47.1113 402.923 46.9745C402.796 46.8377 402.622 46.7534 402.435 46.7386V46.7386ZM315.456 93.6732L416.966 93.9979C418.617 93.9826 420.195 93.3245 421.362 92.1653C422.529 91.0061 423.191 89.4383 423.207 87.799V86.8249C423.209 85.8961 423.402 84.9775 423.775 84.1255C424.147 83.2736 424.691 82.5062 425.373 81.8705C426.055 81.2348 426.86 80.7441 427.739 80.4286C428.619 80.113 429.554 79.9793 430.487 80.0356L449.714 81.2459L428.14 70.5306C426.755 69.8432 425.561 68.8306 424.66 67.5806C423.759 66.3305 423.178 64.8809 422.969 63.3576L419.581 38.798C419.397 37.3488 418.697 36.0131 417.606 35.0329C416.516 34.0528 415.108 33.493 413.638 33.4552L312.99 31.684C312.152 31.6769 311.321 31.841 310.549 32.1659C309.777 32.4909 309.081 32.9699 308.503 33.5732C307.899 34.1729 307.433 34.8945 307.136 35.6891C306.838 36.4837 306.717 37.3327 306.779 38.1781L309.246 87.7695C309.329 89.3543 310.018 90.8478 311.172 91.945C312.326 93.0422 313.859 93.6604 315.456 93.6732V93.6732ZM416.966 95.4444L315.456 95.1197C313.489 95.0905 311.608 94.3113 310.203 92.9431C308.799 91.575 307.977 89.7227 307.908 87.7695L305.293 38.3257C305.241 37.2785 305.404 36.2317 305.774 35.2498C306.145 34.2679 306.713 33.3717 307.446 32.6166C308.178 31.8615 309.058 31.2634 310.032 30.8594C311.006 30.4553 312.053 30.2537 313.109 30.2671L413.638 31.8907C415.482 31.9102 417.258 32.5895 418.639 33.804C420.02 35.0185 420.913 36.6867 421.156 38.5029L424.544 63.0624C424.717 64.3533 425.205 65.5826 425.967 66.6427C426.728 67.7027 427.739 68.5613 428.912 69.1432L453.517 81.4525C453.666 81.5317 453.783 81.6586 453.849 81.8125C453.915 81.9664 453.927 82.1381 453.882 82.2995C453.837 82.4608 453.738 82.6022 453.602 82.7004C453.465 82.7986 453.299 82.8478 453.131 82.8399L430.309 81.3935C429.576 81.3491 428.841 81.4545 428.15 81.7031C427.459 81.9516 426.827 82.3381 426.293 82.8388C425.758 83.3394 425.332 83.9435 425.042 84.6138C424.751 85.2842 424.602 86.0065 424.603 86.7364V87.7695C424.604 88.776 424.403 89.7726 424.015 90.7021C423.626 91.6316 423.057 92.4757 422.339 93.186C421.621 93.8964 420.769 94.4589 419.832 94.8414C418.895 95.2239 417.891 95.4187 416.877 95.4148L416.966 95.4444ZM55.3217 145.39C55.1439 145.32 54.9459 145.321 54.7688 145.392C54.5917 145.464 54.4491 145.6 54.3707 145.774L36.0359 190.613C35.9674 190.793 35.9726 190.992 36.0503 191.169C36.1281 191.346 36.2722 191.485 36.4519 191.557H36.7491C36.9091 191.578 37.0715 191.542 37.2075 191.456C37.3435 191.37 37.4443 191.238 37.492 191.085L55.9457 146.276C55.972 146.176 55.9762 146.072 55.958 145.971C55.9398 145.87 55.8996 145.773 55.8402 145.689C55.7808 145.605 55.7037 145.534 55.6141 145.483C55.5246 145.431 55.4248 145.399 55.3217 145.39V145.39ZM71.3683 224.766C71.5156 224.764 71.6588 224.718 71.78 224.635C71.9012 224.552 71.9948 224.435 72.0489 224.299C72.103 224.163 72.1153 224.014 72.084 223.871C72.0528 223.728 71.9795 223.598 71.8735 223.496L54.7273 207.91C54.5783 207.81 54.3974 207.766 54.2184 207.788C54.0394 207.81 53.8745 207.895 53.7545 208.029C53.6344 208.163 53.5674 208.335 53.566 208.514C53.5646 208.694 53.6288 208.867 53.7467 209.003L70.8632 224.559C70.9285 224.626 71.0071 224.679 71.0941 224.715C71.181 224.75 71.2744 224.768 71.3683 224.766V224.766ZM244.702 296.348C244.621 296.295 244.53 296.259 244.434 296.242C244.339 296.225 244.24 296.228 244.146 296.25C244.051 296.272 243.962 296.313 243.884 296.371C243.806 296.428 243.741 296.501 243.692 296.585C228.834 319.196 209.073 344.759 208.865 345.025C208.798 345.091 208.745 345.169 208.709 345.255C208.673 345.341 208.655 345.433 208.655 345.527C208.655 345.62 208.673 345.712 208.709 345.798C208.745 345.884 208.798 345.963 208.865 346.028C208.988 346.133 209.148 346.186 209.31 346.176C209.418 346.175 209.525 346.151 209.622 346.105C209.72 346.059 209.806 345.993 209.875 345.91C210.083 345.645 230.023 320.052 244.762 297.352C244.881 297.208 244.942 297.025 244.931 296.839C244.92 296.652 244.838 296.477 244.702 296.348V296.348ZM215.789 257.502C215.74 257.4 215.669 257.311 215.582 257.239C215.495 257.168 215.393 257.117 215.283 257.089L199.98 253.074C199.888 253.047 199.792 253.039 199.697 253.05C199.602 253.061 199.51 253.091 199.427 253.137C199.344 253.184 199.271 253.247 199.213 253.322C199.154 253.398 199.112 253.484 199.088 253.576C199.061 253.669 199.052 253.766 199.063 253.863C199.073 253.959 199.103 254.052 199.15 254.137C199.197 254.222 199.26 254.297 199.336 254.358C199.412 254.419 199.5 254.464 199.593 254.491L214.095 258.387C211.123 263.524 195.463 291.832 183.636 314.945C183.552 315.118 183.54 315.316 183.601 315.498C183.662 315.68 183.791 315.831 183.963 315.919C184.08 315.946 184.202 315.946 184.319 315.919C184.456 315.917 184.589 315.877 184.705 315.804C184.82 315.731 184.913 315.628 184.973 315.506C197.959 290.09 215.789 258.446 215.789 258.151C215.863 257.941 215.863 257.712 215.789 257.502ZM207.171 235.953L244.465 165.345L242.236 163.308L146.788 162.895C146.896 162.823 146.979 162.72 147.025 162.599C153.712 145.301 140.726 128.564 140.577 128.387C140.51 128.317 140.43 128.26 140.34 128.222C140.251 128.183 140.155 128.164 140.057 128.164C139.96 128.164 139.863 128.183 139.774 128.222C139.684 128.26 139.604 128.317 139.537 128.387C139.41 128.524 139.339 128.703 139.339 128.889C139.339 129.075 139.41 129.254 139.537 129.391C139.537 129.568 152.166 145.656 145.777 162.216C145.723 162.356 145.716 162.51 145.759 162.654C145.802 162.799 145.892 162.925 146.015 163.013H134.129L93.9526 235.156H54.4005V244.012H207.26V235.953H207.171ZM117.488 180.901C117.495 181.345 117.676 181.768 117.992 182.082C118.308 182.396 118.735 182.576 119.182 182.583C119.626 182.576 120.049 182.395 120.36 182.08C120.671 181.766 120.846 181.342 120.846 180.901C120.846 180.463 120.67 180.042 120.358 179.732C120.046 179.422 119.623 179.248 119.182 179.248C118.737 179.248 118.311 179.421 117.994 179.73C117.677 180.039 117.495 180.46 117.488 180.901V180.901ZM119.182 177.949C119.812 177.95 120.427 178.139 120.949 178.491C121.47 178.844 121.873 179.343 122.105 179.925C122.337 180.507 122.388 181.145 122.251 181.757C122.115 182.368 121.797 182.924 121.338 183.354C120.879 183.784 120.302 184.067 119.679 184.167C119.057 184.267 118.419 184.179 117.847 183.915C117.276 183.651 116.797 183.222 116.474 182.685C116.15 182.148 115.996 181.526 116.032 180.901C116.039 180.076 116.375 179.288 116.965 178.707C117.555 178.127 118.351 177.801 119.182 177.801V177.949ZM110.504 160.858C110.512 161.299 110.694 161.719 111.011 162.028C111.328 162.338 111.754 162.511 112.198 162.511C112.64 162.511 113.063 162.337 113.375 162.027C113.687 161.717 113.862 161.296 113.862 160.858C113.862 160.419 113.687 159.999 113.375 159.689C113.063 159.379 112.64 159.205 112.198 159.205C111.778 159.202 111.372 159.355 111.059 159.633C110.746 159.912 110.549 160.295 110.504 160.71V160.858ZM109.048 160.858C109.048 160.239 109.233 159.634 109.579 159.119C109.925 158.605 110.417 158.204 110.993 157.967C111.568 157.73 112.202 157.668 112.813 157.789C113.424 157.91 113.985 158.208 114.426 158.645C114.866 159.083 115.166 159.64 115.288 160.247C115.409 160.854 115.347 161.483 115.108 162.055C114.87 162.627 114.466 163.116 113.948 163.459C113.43 163.803 112.821 163.987 112.198 163.987C111.773 163.983 111.353 163.895 110.963 163.727C110.572 163.559 110.22 163.315 109.926 163.01C109.633 162.704 109.403 162.343 109.253 161.948C109.102 161.553 109.032 161.132 109.048 160.71V160.858ZM104.948 139.28C104.948 139.718 105.123 140.138 105.435 140.448C105.747 140.758 106.17 140.933 106.612 140.933C107.053 140.933 107.476 140.758 107.788 140.448C108.1 140.138 108.276 139.718 108.276 139.28C108.276 138.841 108.1 138.421 107.788 138.111C107.476 137.801 107.053 137.627 106.612 137.627C106.17 137.627 105.747 137.801 105.435 138.111C105.123 138.421 104.948 138.841 104.948 139.28V139.28ZM103.462 139.28C103.462 138.661 103.646 138.056 103.993 137.541C104.339 137.027 104.831 136.626 105.406 136.389C105.982 136.152 106.615 136.09 107.226 136.211C107.837 136.331 108.398 136.629 108.839 137.067C109.279 137.505 109.579 138.062 109.701 138.669C109.823 139.276 109.76 139.905 109.522 140.477C109.283 141.049 108.88 141.537 108.362 141.881C107.844 142.225 107.235 142.409 106.612 142.409C105.779 142.401 104.982 142.069 104.393 141.484C103.804 140.898 103.469 140.107 103.462 139.28V139.28ZM111.277 135.914C111.141 136.052 111.065 136.238 111.065 136.431C111.065 136.624 111.141 136.81 111.277 136.948C111.407 137.065 111.577 137.129 111.753 137.125C111.854 137.127 111.954 137.107 112.047 137.066C112.139 137.026 112.221 136.965 112.287 136.889C123.639 124.343 116.061 104.713 115.734 103.887C115.711 103.783 115.666 103.685 115.601 103.6C115.536 103.515 115.453 103.445 115.359 103.395C115.264 103.345 115.16 103.315 115.053 103.309C114.945 103.303 114.838 103.32 114.738 103.359C114.638 103.398 114.548 103.457 114.474 103.534C114.399 103.611 114.343 103.703 114.307 103.804C114.272 103.904 114.259 104.011 114.27 104.117C114.28 104.223 114.313 104.326 114.368 104.418C114.516 104.595 122.005 124.048 111.277 135.914V135.914ZM61.7998 99.577C61.804 99.479 61.7876 99.3811 61.7518 99.2897C61.7159 99.1983 61.6614 99.1152 61.5915 99.0459C61.5217 98.9765 61.4381 98.9223 61.3461 98.8867C61.254 98.8511 61.1555 98.8348 61.0569 98.839C60.8571 98.8467 60.6682 98.9309 60.5296 99.074C60.3911 99.2171 60.3138 99.408 60.314 99.6065C60.314 99.9607 61.5323 135.826 99.8364 139.368C100.016 139.369 100.189 139.302 100.321 139.182C100.453 139.062 100.535 138.896 100.55 138.719C100.562 138.625 100.555 138.529 100.528 138.439C100.501 138.348 100.455 138.264 100.394 138.191C100.332 138.119 100.256 138.06 100.17 138.019C100.085 137.978 99.991 137.955 99.8958 137.951C62.9884 134.527 61.8295 101.023 61.7998 99.577ZM88.0094 91.0461C90.3693 91.8617 92.8098 92.4257 95.2898 92.7286L96.0327 90.928L97.1916 93.26H97.5185V86.884C94.1053 87.9667 90.5019 88.3287 86.9396 87.9466C83.6708 87.4743 85.0377 90.0129 88.0094 91.0461ZM95.6464 69.4384C94.4043 69.5479 93.1561 69.3101 92.0428 68.752C90.9296 68.1939 89.9957 67.3376 89.3466 66.2799C89.2999 66.1945 89.2367 66.119 89.1606 66.0579C89.0845 65.9968 88.997 65.9512 88.9032 65.9238C88.8093 65.8963 88.7109 65.8876 88.6136 65.8981C88.5163 65.9085 88.422 65.938 88.3362 65.9847C88.2307 66.0262 88.1361 66.0911 88.0597 66.1745C87.9833 66.2579 87.9272 66.3576 87.8956 66.4659C87.864 66.5742 87.8579 66.6882 87.8776 66.7993C87.8973 66.9103 87.9424 67.0154 88.0094 67.1064C88.7263 68.2992 89.7394 69.2892 90.9516 69.9817C92.1639 70.6743 93.5348 71.0462 94.9332 71.0619H95.7058C95.9029 71.0619 96.0918 70.9842 96.2311 70.8458C96.3705 70.7074 96.4487 70.5197 96.4487 70.324C96.4487 70.1283 96.3705 69.9405 96.2311 69.8022C96.0918 69.6638 95.9029 69.586 95.7058 69.586L95.6464 69.4384ZM101.174 60.5828C100.49 59.0774 97.7265 53.3507 97.7265 53.3507L96.419 53.9706C96.419 53.9706 99.2123 59.5792 99.8958 61.2027C99.9342 61.2913 99.954 61.3867 99.954 61.4831C99.954 61.5796 99.9342 61.675 99.8958 61.7636C99.235 62.7613 98.2648 63.5178 97.1322 63.9184C97.0433 63.9539 96.9625 64.0067 96.8946 64.0739C96.8267 64.141 96.7732 64.2211 96.7371 64.3092C96.7011 64.3974 96.6833 64.4919 96.6848 64.587C96.6863 64.6822 96.7071 64.776 96.7459 64.863C96.7993 65.0005 96.8929 65.119 97.0148 65.2032C97.1366 65.2874 97.281 65.3334 97.4293 65.3353H97.6968C99.1957 64.7947 100.457 63.7505 101.263 62.3834C101.412 62.0844 101.487 61.7543 101.482 61.4205C101.477 61.0868 101.391 60.7591 101.233 60.4647L101.174 60.5828ZM110.445 45.3807C110.584 45.5159 110.771 45.5917 110.965 45.5917C111.159 45.5917 111.346 45.5159 111.485 45.3807C111.556 45.3144 111.613 45.2344 111.651 45.1456C111.69 45.0567 111.71 44.9609 111.71 44.8641C111.71 44.7673 111.69 44.6715 111.651 44.5827C111.613 44.4938 111.556 44.4138 111.485 44.3475C110.489 43.6534 109.364 43.1629 108.175 42.9045C106.987 42.646 105.758 42.6248 104.561 42.8421C103.294 42.9509 102.061 43.3129 100.938 43.9064C99.8143 44.4998 98.8232 45.3126 98.0237 46.2958C97.9667 46.3751 97.926 46.4648 97.9041 46.5598C97.8822 46.6548 97.8795 46.7532 97.8961 46.8493C97.9127 46.9453 97.9482 47.0372 98.0007 47.1195C98.0532 47.2018 98.1216 47.273 98.202 47.3289C98.3214 47.4206 98.4671 47.4723 98.618 47.4765C98.7405 47.4754 98.8609 47.4454 98.9694 47.3889C99.0779 47.3325 99.1714 47.2512 99.242 47.1518C100.644 45.6275 102.529 44.6261 104.584 44.3146C106.638 44.0031 108.738 44.4002 110.534 45.4397L110.445 45.3807ZM85.0377 43.1668C83.7654 43.2734 82.5278 43.6343 81.3992 44.2278C80.2707 44.8213 79.2746 45.6351 78.4705 46.6205C78.4156 46.6992 78.3774 46.7882 78.3581 46.8821C78.3389 46.9759 78.339 47.0727 78.3584 47.1665C78.3778 47.2603 78.4162 47.3492 78.4713 47.4279C78.5263 47.5065 78.5968 47.5733 78.6785 47.6241C78.7343 47.6752 78.7999 47.7146 78.8714 47.74C78.9429 47.7654 79.0188 47.7762 79.0945 47.7717C79.2129 47.7709 79.3293 47.7407 79.433 47.684C79.5368 47.6273 79.6247 47.5459 79.6889 47.447C80.3678 46.6162 81.2059 45.9276 82.1547 45.4209C83.1034 44.9142 84.144 44.5995 85.216 44.4951C87.2724 44.0833 89.4093 44.4973 91.1593 45.6464C91.2981 45.7816 91.4848 45.8573 91.6793 45.8573C91.8737 45.8573 92.0605 45.7816 92.1993 45.6464C92.3267 45.5099 92.3975 45.3307 92.3975 45.1446C92.3975 44.9584 92.3267 44.7792 92.1993 44.6427C91.1703 43.924 90.004 43.4223 88.7723 43.1685C87.5406 42.9146 86.2697 42.9141 85.0377 43.1668V43.1668ZM104.71 53.2031C104.949 53.2348 105.192 53.2154 105.423 53.1461C105.654 53.0767 105.868 52.9592 106.049 52.8013C106.231 52.6433 106.377 52.4487 106.476 52.2304C106.576 52.012 106.627 51.7751 106.627 51.5353C106.627 51.2956 106.576 51.0586 106.476 50.8403C106.377 50.622 106.231 50.4273 106.049 50.2694C105.868 50.1115 105.654 49.9939 105.423 49.9246C105.192 49.8553 104.949 49.8358 104.71 49.8675C104.268 49.8675 103.845 50.0417 103.533 50.3517C103.221 50.6617 103.046 51.0822 103.046 51.5206C103.046 51.744 103.09 51.9653 103.177 52.1714C103.264 52.3774 103.392 52.5643 103.552 52.7209C103.713 52.8775 103.903 53.0008 104.112 53.0836C104.321 53.1664 104.544 53.2071 104.769 53.2031H104.71ZM86.3155 54.6791C86.7545 54.6715 87.1733 54.4949 87.4838 54.1865C87.7942 53.8781 87.972 53.4621 87.9796 53.026C87.9796 52.5876 87.8043 52.1672 87.4922 51.8572C87.1802 51.5471 86.7569 51.373 86.3155 51.373C85.8714 51.3729 85.445 51.5461 85.1282 51.8553C84.8114 52.1645 84.6295 52.5849 84.6217 53.026C84.6214 53.2508 84.6672 53.4732 84.7564 53.6798C84.8455 53.8863 84.9761 54.0727 85.1402 54.2274C85.3043 54.3821 85.4984 54.5019 85.7107 54.5796C85.923 54.6573 86.1491 54.6911 86.375 54.6791H86.3155ZM69.6448 93.9094C71.3441 88.9855 71.5895 83.6814 70.3521 78.6235C69.1147 73.5655 66.4461 68.9649 62.6615 65.3648C62.6615 65.3648 53.7467 66.5751 51.9935 58.9593C50.2402 51.3435 58.2933 48.0079 58.2933 48.0079L62.4832 55.6532C65.33 53.6055 67.6081 50.8746 69.1047 47.7154C70.6013 44.5563 71.2676 41.072 71.0415 37.5878C81.5589 36.2408 91.2663 31.2679 98.4694 23.5369L113.327 36.8793C112.509 31.6114 110.226 26.6753 106.734 22.6279C103.242 18.5805 98.6816 15.5828 93.5663 13.9728C75.0531 7.36065 50.7751 18.135 43.5838 37.204C36.3925 56.2731 36.4519 75.7259 40.8202 84.0502C45.1885 92.3744 58.7984 97.1565 69.6448 93.9094ZM400.028 307.329C399.92 307.308 399.809 307.31 399.702 307.336C399.595 307.362 399.496 307.412 399.41 307.481C399.325 307.55 399.256 307.638 399.209 307.736C399.162 307.835 399.138 307.943 399.138 308.053C399.138 308.162 399.162 308.27 399.209 308.369C399.256 308.468 399.325 308.555 399.41 308.624C399.496 308.693 399.595 308.743 399.702 308.769C399.809 308.795 399.92 308.798 400.028 308.776H410.577C410.685 308.798 410.797 308.795 410.904 308.769C411.011 308.743 411.11 308.693 411.195 308.624C411.281 308.555 411.349 308.468 411.397 308.369C411.444 308.27 411.468 308.162 411.468 308.053C411.468 307.943 411.444 307.835 411.397 307.736C411.349 307.638 411.281 307.55 411.195 307.481C411.11 307.412 411.011 307.362 410.904 307.336C410.797 307.31 410.685 307.308 410.577 307.329H400.028ZM368.41 459.97L367.935 459.41L368.41 459.97ZM393.639 414.335C394.146 417.805 394.414 421.307 394.442 424.814C394.442 430.186 376.047 441.197 368.737 447.1C367.842 447.739 367.087 448.553 366.52 449.492C365.952 450.431 365.585 451.476 365.439 452.561H433.786L433.518 414.394L393.639 414.335ZM365.439 452.709C365.369 455.223 366.261 457.67 367.935 459.557C366.193 457.646 365.266 455.138 365.35 452.561L365.439 452.709ZM370.669 185.742C370.607 185.56 370.477 185.408 370.305 185.32C370.133 185.232 369.933 185.214 369.748 185.27C369.748 185.27 368.47 185.683 364.102 186.746L363.002 187.011C358.812 188.044 356.197 188.546 355.662 187.011C355.601 186.829 355.47 186.677 355.298 186.589C355.126 186.501 354.926 186.483 354.741 186.539C354.557 186.6 354.405 186.73 354.316 186.901C354.227 187.071 354.209 187.27 354.265 187.454C354.485 188.142 354.951 188.727 355.576 189.097C356.2 189.466 356.939 189.596 357.653 189.461C359.577 189.336 361.48 189 363.329 188.458L364.369 188.133C368.856 187.07 370.074 186.657 370.134 186.628C370.237 186.596 370.331 186.543 370.411 186.471C370.491 186.399 370.555 186.312 370.597 186.213C370.639 186.115 370.66 186.009 370.657 185.902C370.654 185.795 370.627 185.69 370.58 185.594L370.669 185.742ZM512.533 63.8594H512.712C512.872 63.8594 513.029 63.8076 513.157 63.7118C513.286 63.616 513.38 63.4813 513.425 63.328C513.797 62.3705 513.946 61.3412 513.858 60.3183C513.771 59.2953 513.45 58.3057 512.92 57.4243C512.338 56.6782 511.613 56.054 510.786 55.5878C509.96 55.1217 509.049 54.8229 508.106 54.7086C507.909 54.7086 507.72 54.7863 507.58 54.9247C507.441 55.0631 507.363 55.2508 507.363 55.4466C507.363 55.6423 507.441 55.83 507.58 55.9684C507.72 56.1068 507.909 56.1845 508.106 56.1845C509.573 56.3536 510.916 57.0843 511.85 58.2213C512.24 58.935 512.469 59.7248 512.521 60.5354C512.572 61.3461 512.444 62.1581 512.147 62.9148C512.103 63.0617 512.108 63.2188 512.162 63.3625C512.216 63.5062 512.315 63.6287 512.444 63.7118L512.533 63.8594ZM487.067 85.2014C486.971 85.224 486.881 85.2669 486.804 85.3272C486.726 85.3874 486.663 85.4636 486.618 85.5505C486.572 85.6374 486.547 85.733 486.542 85.8306C486.538 85.9283 486.554 86.0258 486.591 86.1165C486.64 86.2595 486.731 86.3843 486.854 86.474C486.976 86.5638 487.123 86.6141 487.275 86.6183H487.512C488.675 86.3252 489.762 85.7927 490.704 85.0554C491.646 84.318 492.422 83.3922 492.98 82.3381C493.267 81.8767 493.385 81.3316 493.314 80.7941C493.244 80.2566 492.99 79.7595 492.594 79.3862C492.069 79.0378 491.447 78.8643 490.816 78.8909C490.186 78.9174 489.58 79.1426 489.087 79.5338C487.449 80.343 485.656 80.7959 483.828 80.8621C483.72 80.8404 483.608 80.8427 483.501 80.869C483.395 80.8952 483.295 80.9447 483.21 81.014C483.124 81.0832 483.056 81.1703 483.009 81.2692C482.961 81.368 482.937 81.476 482.937 81.5853C482.937 81.6947 482.961 81.8027 483.009 81.9015C483.056 82.0004 483.124 82.0875 483.21 82.1567C483.295 82.2259 483.395 82.2755 483.501 82.3017C483.608 82.328 483.72 82.3303 483.828 82.3086V82.3086C485.906 82.2382 487.94 81.6928 489.771 80.7145C490.543 80.2127 491.197 80.2422 491.524 80.5079C491.851 80.7736 491.821 81.2164 491.524 81.7477C491.025 82.5712 490.366 83.2877 489.586 83.8554C488.805 84.423 487.918 84.8304 486.978 85.0538L487.067 85.2014ZM487.304 59.0183C487.44 59.0613 487.585 59.0613 487.72 59.0183C487.841 59.023 487.96 58.9986 488.069 58.9472C488.178 58.8958 488.272 58.8189 488.344 58.7231C488.449 58.5571 488.486 58.3576 488.447 58.1655C488.408 57.9734 488.297 57.8033 488.136 57.69C486.897 56.8176 485.45 56.2823 483.938 56.1373C482.427 55.9923 480.903 56.2426 479.519 56.8635C479.358 56.9617 479.239 57.1151 479.184 57.2945C479.13 57.474 479.143 57.6672 479.222 57.8376C479.257 57.9371 479.313 58.028 479.386 58.1042C479.46 58.1804 479.548 58.2401 479.647 58.2793C479.746 58.3184 479.851 58.3361 479.957 58.3312C480.063 58.3263 480.167 58.2989 480.262 58.2508C481.378 57.7563 482.603 57.5536 483.82 57.6621C485.037 57.7706 486.206 58.1867 487.215 58.8707L487.304 59.0183ZM483.233 67.1064C483.533 67.1064 483.826 67.0181 484.075 66.8527C484.325 66.6873 484.519 66.4522 484.633 66.1771C484.748 65.902 484.778 65.5993 484.72 65.3073C484.661 65.0153 484.517 64.747 484.305 64.5365C484.093 64.3259 483.823 64.1825 483.529 64.1245C483.235 64.0664 482.93 64.0962 482.653 64.2101C482.376 64.3241 482.14 64.517 481.973 64.7646C481.807 65.0122 481.718 65.3032 481.718 65.601C481.718 66.0003 481.877 66.3832 482.162 66.6655C482.446 66.9478 482.831 67.1064 483.233 67.1064V67.1064ZM474.824 33.7503C480.232 37.086 487.869 42.2812 487.869 42.2812C491.702 60.7894 502.994 60.4943 502.994 60.4943L505.728 50.6941C505.728 50.6941 517.021 50.5169 517.615 59.5497C518.209 68.5824 508.403 71.3571 508.403 71.3571C504.569 81.8067 517.942 81.9543 517.942 81.9543C518.714 83.0041 519.718 83.864 520.877 84.4679C522.036 85.0718 523.319 85.4035 524.628 85.4375C527.808 85.4822 530.923 84.5435 533.543 82.7513C536.306 84.4343 539.616 84.9946 542.784 84.3158C545.935 83.223 548.637 81.1313 550.474 78.3629C552.31 75.5945 553.179 72.303 552.947 68.9956C554.419 68.4317 555.751 67.5599 556.853 66.4394C557.956 65.3189 558.803 63.9759 559.336 62.5015C560.369 58.6302 559.913 54.5157 558.058 50.9597C559.409 49.5225 560.457 47.8317 561.141 45.9865C561.825 44.1414 562.131 42.1791 562.04 40.2149C561.858 38.2081 561.161 36.2811 560.017 34.6174C558.872 32.9536 557.318 31.6085 555.503 30.7099C556.565 28.7345 557.108 26.5248 557.082 24.2854C557.056 22.0461 556.462 19.8495 555.354 17.8988C554.122 16.206 552.444 14.8834 550.504 14.0762C548.564 13.269 546.438 13.0086 544.359 13.3234C543.929 11.5602 543.116 9.91179 541.976 8.49411C540.837 7.07643 539.398 5.92381 537.762 5.11723C532.8 3.05092 526.44 6.71124 526.44 6.71124C525.696 4.90843 524.474 3.3393 522.904 2.17007C521.335 1.00084 519.476 0.275031 517.526 0.0695389C510.661 -0.727465 505.639 5.58953 505.639 5.58953C505.639 5.58953 500.558 1.01414 490.365 3.40515C487.558 3.94127 485.012 5.39491 483.133 7.53462C481.253 9.67432 480.148 12.3771 479.994 15.2126C477.915 15.3981 475.942 16.2041 474.333 17.5246C472.724 18.8452 471.555 20.6185 470.979 22.6114C470.404 24.6043 470.449 26.7236 471.108 28.6906C471.768 30.6576 473.011 32.3803 474.675 33.6323L474.824 33.7503ZM577.136 155.515C575.858 180.783 571.431 230.965 571.431 230.965H563.467C536.722 230.965 525.282 257.207 525.282 257.207C499.607 254.255 473.873 236.78 473.873 236.78C473.873 236.78 479.816 235.097 481.956 226.389C483.59 219.364 486.918 203.069 486.918 203.069L443.533 191.882C443.533 191.882 447.931 159.884 452.863 140.018C457.796 120.151 477.29 104.034 493.069 104.034H513.098L511.196 98.1306C519.249 96.1528 520.111 96.1528 520.854 98.1306C521.27 99.1342 517.645 101.82 514.138 104.034H551.253C558.564 107.134 578.325 130.099 576.988 155.397L577.136 155.515Z" fill="#27475C"/>
</svg>
