<svg width="650" height="460" viewBox="0 0 650 460" fill="none" xmlns="http://www.w3.org/2000/svg">
<path d="M493.081 451.39C487.054 450.242 456.073 446.798 456.073 410.32H441.216C441.216 435.863 433.14 448.262 406.891 451.677C400.261 452.538 399.96 460 408.097 460H493.653C500.042 460 499.108 452.538 493.081 451.39ZM536.447 203.878C531.896 179.11 521.951 142.89 517.401 128.712C512.85 114.534 503.327 109.024 486.33 109.024C486.33 109.024 479.7 96.8263 461.468 96.8263C456.343 96.729 451.287 97.9592 446.839 100.386C442.391 102.812 438.718 106.343 436.214 110.602C436.214 110.602 400.593 107.732 394.776 134.625C388.96 161.517 382.722 192.771 382.722 192.771L378.774 185.252H370.878L367.172 180.746C367.172 180.746 354.062 187.003 350.808 194.78C350.808 194.78 358.734 215.301 365.574 230.311C372.415 245.322 401.316 254.592 417.8 237.343H521.379C521.379 237.343 541.027 228.647 536.447 203.878ZM525.598 350.594C525.598 362.591 511.404 364.084 511.404 364.084H382.029C382.029 364.084 370.999 359.578 369.432 350.594C369.087 346.813 369.826 343.014 371.572 339.602H181.472C172.406 339.598 163.673 336.351 157.002 330.504L6.74257 199.057C3.64024 196.314 1.47617 192.746 0.531729 188.816C-0.412714 184.886 -0.0938441 180.776 1.44688 177.021C2.98761 173.266 5.67891 170.04 9.17089 167.761C12.6629 165.482 16.794 164.256 21.0271 164.243H108L252.232 266.703H510.53V333.977H516.075C519.106 335.653 521.596 338.088 523.275 341.018C524.954 343.948 525.757 347.26 525.598 350.594V350.594Z" fill="#3B5998"/>
<path d="M220.258 248.938L152.963 250.373L149.498 260.246C163.929 267.654 179.502 272.836 195.636 275.601C221.041 279.647 220.258 248.938 220.258 248.938ZM74.1572 164.243L88.2007 209.619L104.655 208.901L115.323 169.438L108 164.243H74.1572ZM537.08 213.034C519.721 230.254 488.59 235.592 467.224 237.2H521.469C526.03 234.815 529.864 231.347 532.6 227.132C535.336 222.917 536.879 218.1 537.08 213.149V213.034ZM421.929 215.703C421.929 215.703 412.436 242.423 389.231 246.211C394.221 247.174 399.383 246.935 404.251 245.516C409.118 244.098 413.537 241.545 417.107 238.089L421.929 215.703ZM441.216 410.32C441.216 435.863 433.11 448.262 406.891 451.677C405.3 451.828 403.832 452.558 402.793 453.715H410.116C416.964 453.715 423.742 452.39 430.036 449.819C436.33 447.249 442.01 443.487 446.731 438.762L458.786 426.794C456.967 421.477 456.081 415.911 456.164 410.32H441.216ZM230.564 286.335L295.508 334.494H162.908C168.546 337.738 175.006 339.455 181.593 339.459H319.104L370.336 295.576L318.321 274.395L230.564 286.335ZM649.97 309.467C642.225 372.608 611.637 392.239 611.637 392.239L521.71 390C509.264 381.39 501.368 363.911 501.368 363.911H511.253C511.253 363.911 525.447 362.505 525.447 350.422C525.618 347.154 524.829 343.905 523.168 341.041C521.507 338.176 519.04 335.809 516.045 334.207L518.817 273.333C531.844 284.519 541.182 299.066 545.699 315.207C549.405 292.534 564.202 265.355 564.202 265.355C573.074 283.584 577.661 303.438 577.643 323.53C591.114 291.558 613.294 278.758 613.294 278.758C615.338 301.38 612.821 324.165 605.881 345.888C633.847 312.021 650 309.467 650 309.467H649.97Z" fill="white"/>
<path d="M373.41 453.169L354.514 436.466C354.514 436.466 338.603 446.31 330.406 451.562C322.208 456.814 325.192 459.943 325.192 459.943H357.106L378.925 454.662V459.943H400.412L399.448 446.626L373.41 453.169ZM209.71 196.043C209.71 196.043 197.656 187.261 188.615 181.148C180.114 174.883 169.547 171.709 158.81 172.193C152.293 172.714 145.748 171.565 139.854 168.864L137.323 173.628L131.959 169.783L104.505 176.011L103.691 179.942C98.7094 184.697 94.0395 189.739 89.7076 195.039C84.6447 201.669 84.6447 216.765 97.3321 226.609C110.019 236.453 137.956 254.678 147.177 260.705C156.399 266.732 171.919 263.116 171.919 263.116L177.494 267.364C177.494 267.364 203.14 228.819 207.962 221.587C210.016 217.875 213.075 214.753 216.822 212.546L201.272 195.842L209.71 196.043ZM354.786 155.863C356.895 157.327 352.435 166.482 352.435 166.482L370.909 185.109H384.319L392.335 146.908L367.262 123.948H309.822L347.252 161.574C347.252 161.574 352.706 154.514 354.786 156.006V155.863ZM516.075 334.092H384.108C367.413 334.092 369.311 350.107 369.311 350.107H313.107C288.486 311.677 304.066 279.906 325.614 274.998C347.161 270.09 414.907 256.515 414.907 256.515L417.921 237.171H521.499C559.742 295.174 516.075 334.235 516.075 334.235V334.092Z" fill="white"/>
<path d="M354.786 189.414C358.581 186.27 362.609 183.393 366.84 180.803L352.405 166.453C352.405 166.453 356.775 156.982 354.756 155.777C352.737 154.571 350.054 157.154 345.715 163.526C341.375 169.897 342.701 174.202 344.238 177.13C347.47 181.438 350.993 185.542 354.786 189.414V189.414ZM472.317 25.3339C455.833 -1.35739 405.204 14.5713 399.99 29.0075C396.711 39.2455 394.976 49.8751 394.837 60.5779C394.837 60.5779 391.673 66.6911 390.678 69.188C389.684 71.6849 392.968 72.4311 395.259 73.4069C395.259 73.4069 398.272 100.672 426.45 96.3672L430.91 110.717H436.274C436.274 110.717 440.915 98.2327 463.397 96.9986L457.37 80.6968C457.37 80.6968 488.651 52.1113 472.197 25.3339H472.317ZM135.665 111.664C130.813 108.421 112.099 99.1798 93.4747 110.316C74.8505 121.451 78.4066 146.593 88.7433 157.327C94.4083 163.465 101.691 168.052 109.839 170.615L113.425 174.575L131.959 169.783L137.233 173.571L139.854 168.864L138.86 165.994C138.86 165.994 154.29 161.517 150.914 142.23C147.539 122.944 140.547 114.936 135.665 111.664ZM222.669 198.196C215.753 196.098 208.478 195.289 201.242 195.814L216.792 212.517H233.699C233.699 212.517 233.036 201.611 222.669 198.196ZM396.524 429.922C399.207 437.241 401.226 446.798 394.174 448.376L373.41 453.141L354.002 436.695C358.372 433.51 359.698 427.138 355.69 419.475C351.682 411.812 317.839 350.594 317.839 350.594C317.839 350.594 359.577 350.135 369.342 350.135C371.21 356.909 378.382 363.596 384.199 363.596H393.631L393.842 422.517L396.524 429.922Z" fill="#F79A91"/>
<path d="M129.548 170.414L131.958 169.783L133.495 170.902C135.26 171.045 137.035 171.045 138.799 170.902L139.824 168.979L138.829 166.109C134.886 167.235 130.856 168.06 126.775 168.577C124.183 168.778 126.082 169.783 129.548 170.414ZM246.235 108.708H243.764C243.579 108.743 243.412 108.837 243.292 108.976C243.172 109.115 243.106 109.289 243.106 109.469C243.106 109.649 243.172 109.823 243.292 109.962C243.412 110.1 243.579 110.195 243.764 110.229H246.235C246.353 110.251 246.474 110.248 246.591 110.22C246.707 110.192 246.815 110.14 246.908 110.067C247.001 109.994 247.075 109.903 247.127 109.8C247.178 109.696 247.204 109.583 247.204 109.469C247.204 109.354 247.178 109.242 247.127 109.138C247.075 109.035 247.001 108.943 246.908 108.871C246.815 108.798 246.707 108.746 246.591 108.718C246.474 108.69 246.353 108.686 246.235 108.708V108.708ZM238.189 108.708L187.439 109.512C187.231 109.512 187.032 109.591 186.885 109.73C186.738 109.87 186.656 110.06 186.656 110.258C186.656 110.456 186.738 110.646 186.885 110.786C187.032 110.926 187.231 111.004 187.439 111.004V111.004L238.189 110.143C238.399 110.136 238.598 110.051 238.745 109.906C238.891 109.762 238.972 109.569 238.972 109.368C238.968 109.275 238.945 109.184 238.903 109.1C238.861 109.016 238.802 108.94 238.729 108.879C238.655 108.817 238.57 108.77 238.477 108.741C238.384 108.712 238.286 108.7 238.189 108.708V108.708ZM278.722 95.7644L187.108 96.3671C187.006 96.3671 186.906 96.3865 186.812 96.4244C186.719 96.4622 186.634 96.5176 186.564 96.5873C186.494 96.657 186.439 96.7396 186.403 96.83C186.367 96.9203 186.35 97.0167 186.354 97.1134C186.354 97.3113 186.437 97.5011 186.584 97.641C186.731 97.7809 186.93 97.8596 187.138 97.8596L278.752 97.2569C278.954 97.2494 279.146 97.1675 279.287 97.0284C279.427 96.8893 279.505 96.7037 279.505 96.5106C279.505 96.3127 279.423 96.1229 279.276 95.983C279.129 95.8431 278.93 95.7644 278.722 95.7644V95.7644ZM186.204 85.8054L279.355 84.9157C279.562 84.9157 279.762 84.8371 279.909 84.6972C280.056 84.5572 280.138 84.3674 280.138 84.1695C280.138 83.9716 280.056 83.7818 279.909 83.6419C279.762 83.5019 279.562 83.4233 279.355 83.4233V83.4233L186.204 84.313C185.996 84.313 185.797 84.3916 185.65 84.5316C185.503 84.6715 185.42 84.8613 185.42 85.0592C185.434 85.2527 185.521 85.4348 185.665 85.572C185.809 85.7091 186 85.792 186.204 85.8054ZM169.357 132.07L174.149 128.598C177.825 125.939 182.343 124.552 186.957 124.666L289.661 126.732C290.957 126.755 292.21 126.293 293.152 125.445C294.093 124.597 294.647 123.431 294.694 122.197L295.899 76.2769C295.916 75.6463 295.799 75.019 295.555 74.4323C295.312 73.8456 294.947 73.3114 294.483 72.8616C294.029 72.4255 293.49 72.0792 292.895 71.8427C292.3 71.6063 291.662 71.4844 291.017 71.484V71.484L180.207 73.2347C178.93 73.2422 177.708 73.7284 176.806 74.588C175.903 75.4475 175.393 76.6112 175.385 77.8267L174.963 115.797C174.925 118.309 174.394 120.791 173.396 123.116L169.357 132.07ZM167.007 134.94C166.875 134.841 166.78 134.703 166.737 134.548C166.693 134.393 166.703 134.228 166.766 134.079L171.829 122.599C172.77 120.452 173.272 118.153 173.305 115.826L173.697 77.9415C173.705 76.3351 174.376 74.7962 175.566 73.6575C176.756 72.5189 178.369 71.8721 180.056 71.8571L290.897 70.1064C291.768 70.0946 292.633 70.2502 293.44 70.5641C294.246 70.878 294.978 71.3436 295.591 71.933C296.205 72.5225 296.687 73.2237 297.009 73.9948C297.331 74.7658 297.487 75.5908 297.467 76.4204L296.261 122.341C296.214 123.973 295.489 125.52 294.247 126.644C293.004 127.768 291.345 128.378 289.631 128.339L186.927 126.215C182.661 126.131 178.49 127.415 175.083 129.86L167.971 134.998C167.828 135.088 167.661 135.138 167.489 135.141C167.299 135.133 167.118 135.062 166.977 134.94H167.007ZM638.85 325.166C638.695 325.037 638.497 324.966 638.292 324.966C638.087 324.966 637.889 325.037 637.735 325.166C636.332 326.399 635.212 327.894 634.444 329.559C633.677 331.223 633.279 333.02 633.274 334.838C633.274 337.249 631.195 339.258 628.664 341.554C625.704 343.871 623.36 346.821 621.823 350.164C618.809 358.143 615.795 363.739 608.894 368.733C603.982 372.349 600.968 381.849 599.431 388.134H591.023C603.349 371.546 606.092 347.954 606.092 347.638C606.109 347.442 606.047 347.246 605.918 347.091C605.789 346.937 605.603 346.835 605.398 346.806C605.187 346.79 604.978 346.853 604.815 346.981C604.651 347.11 604.547 347.294 604.524 347.495C604.524 347.724 601.511 371.833 589.034 388.134H579.994C580.201 382.304 581.444 376.55 583.67 371.115C585.342 367.408 586.183 363.411 586.141 359.377C585.541 350.538 587.951 341.752 593.012 334.321C597.442 328.581 599.04 323.387 599.311 313.915C599.501 308.758 601.818 303.88 605.76 300.34C605.902 300.196 605.981 300.007 605.981 299.809C605.981 299.612 605.902 299.422 605.76 299.278C605.687 299.208 605.6 299.152 605.505 299.114C605.409 299.076 605.306 299.056 605.202 299.056C605.099 299.056 604.996 299.076 604.9 299.114C604.805 299.152 604.718 299.208 604.645 299.278C602.5 301.148 600.772 303.41 599.566 305.93C598.359 308.45 597.699 311.176 597.623 313.944C597.322 323.186 595.875 327.921 591.596 333.518C586.344 341.261 583.84 350.406 584.454 359.606C584.469 363.419 583.648 367.192 582.043 370.685C579.8 376.287 578.538 382.201 578.306 388.192H574.207C579.3 375.076 578.276 327.032 578.246 325.051C578.238 324.858 578.152 324.676 578.006 324.542C577.86 324.408 577.665 324.334 577.462 324.334V324.334C577.361 324.334 577.26 324.353 577.167 324.391C577.073 324.429 576.989 324.484 576.918 324.554C576.848 324.624 576.793 324.706 576.757 324.796C576.721 324.887 576.705 324.983 576.709 325.08C576.709 325.625 577.763 376.568 572.55 388.221H561.761C561.583 384.196 561.999 380.167 562.997 376.253C564.757 369.131 564.633 361.705 562.635 354.641C562.032 351.599 561.339 348.155 560.797 344.022C560.186 337.405 560.767 330.736 562.515 324.305C563.81 318.393 564.986 312.825 563.569 307.946C561.994 301.683 561.891 295.165 563.268 288.86C563.31 288.761 563.33 288.654 563.324 288.546C563.319 288.439 563.29 288.334 563.239 288.238C563.187 288.143 563.114 288.059 563.026 287.993C562.937 287.927 562.834 287.879 562.725 287.854C562.615 287.829 562.501 287.827 562.39 287.848C562.28 287.868 562.175 287.912 562.084 287.974C561.992 288.037 561.916 288.118 561.86 288.212C561.805 288.305 561.771 288.409 561.761 288.516C560.241 295.057 560.333 301.846 562.032 308.348C563.388 312.911 562.273 318.077 560.978 324.018C559.205 330.572 558.604 337.364 559.2 344.108C559.772 348.327 560.495 351.771 561.098 354.842C563.02 361.702 563.144 368.906 561.46 375.822C560.446 379.852 560.011 383.993 560.164 388.134H555.011C541.63 360.611 546.151 317.216 546.181 316.786C546.198 316.688 546.193 316.589 546.167 316.493C546.14 316.398 546.092 316.309 546.026 316.233C545.961 316.157 545.879 316.095 545.786 316.052C545.693 316.008 545.591 315.985 545.488 315.982C545.284 315.966 545.083 316.026 544.925 316.149C544.767 316.272 544.667 316.449 544.644 316.642C544.644 317.072 540.093 360.238 553.293 388.134H548.14C546.984 385.809 545.623 383.582 544.071 381.476C541.841 378.545 539.999 375.365 538.586 372.005C536.991 367.49 536.326 362.725 536.628 357.97C536.723 354.519 536.552 351.066 536.115 347.638C534.942 340.989 532.201 334.679 528.099 329.184C528.045 329.089 527.971 329.007 527.881 328.942C527.79 328.878 527.686 328.832 527.576 328.81C527.466 328.787 527.351 328.787 527.241 328.81C527.131 328.833 527.027 328.879 526.937 328.944C526.847 329.008 526.773 329.091 526.719 329.186C526.666 329.281 526.635 329.385 526.628 329.493C526.621 329.6 526.638 329.707 526.679 329.808C526.719 329.908 526.782 329.999 526.863 330.074C530.767 335.385 533.391 341.451 534.548 347.839C534.986 351.199 535.158 354.586 535.06 357.97C534.752 362.901 535.448 367.842 537.11 372.521C538.56 375.992 540.452 379.279 542.745 382.308C544.121 384.136 545.36 386.054 546.452 388.048H537.652C527.315 380.242 522.072 362.706 521.168 359.549C523.511 357.611 524.979 354.887 525.266 351.943H369.824C370.833 354.835 372.657 357.406 375.097 359.377L391.793 420.049C391.833 420.211 391.929 420.356 392.066 420.46C392.202 420.564 392.371 420.621 392.546 420.623H392.757C392.957 420.57 393.126 420.443 393.228 420.271C393.329 420.099 393.355 419.895 393.3 419.705L377.147 361.041C378.677 362.155 380.323 363.117 382.059 363.911H441.216V410.291H456.043V363.94H511.283C514.373 363.498 517.319 362.399 519.902 360.726C521.138 365.088 525.929 380.098 535.271 388.192H516.195V424.9C516.219 434.115 520.076 442.947 526.921 449.461C533.767 455.975 543.043 459.64 552.72 459.656H583.098C587.902 459.659 592.66 458.762 597.1 457.014C601.541 455.267 605.576 452.704 608.976 449.471C612.376 446.238 615.074 442.399 616.917 438.173C618.759 433.948 619.709 429.418 619.713 424.842V388.192H600.938C602.445 382.107 605.308 373.239 609.738 369.996C616.206 365.058 620.902 358.329 623.179 350.738C624.632 347.572 626.852 344.778 629.658 342.587C632.34 340.119 634.902 337.823 634.721 334.723C634.726 333.107 635.079 331.51 635.758 330.029C636.437 328.548 637.428 327.215 638.669 326.113C638.802 325.995 638.892 325.839 638.925 325.668C638.957 325.497 638.931 325.321 638.85 325.166V325.166ZM124.605 449.754C124.026 450.763 123.891 451.949 124.23 453.052C124.569 454.156 125.354 455.086 126.413 455.638C127.472 456.189 128.718 456.318 129.877 455.995C131.035 455.672 132.012 454.924 132.591 453.916L203.562 339.516H181.442L124.605 449.754ZM135.786 127.507C135.933 127.638 136.127 127.71 136.328 127.708C136.539 127.711 136.743 127.64 136.901 127.507C137.992 126.646 139.299 126.072 140.695 125.841C142.09 125.609 143.525 125.728 144.857 126.187C145.052 126.228 145.257 126.197 145.429 126.098C145.601 126 145.727 125.843 145.781 125.66C145.835 125.476 145.813 125.279 145.72 125.11C145.626 124.941 145.468 124.813 145.279 124.752C143.678 124.223 141.961 124.101 140.296 124.398C138.631 124.695 137.077 125.401 135.786 126.445C135.708 126.512 135.646 126.594 135.603 126.686C135.561 126.777 135.539 126.876 135.539 126.976C135.539 127.076 135.561 127.175 135.603 127.266C135.646 127.358 135.708 127.44 135.786 127.507ZM127.8 129.918C127.895 129.957 127.997 129.979 128.101 129.981C128.204 129.983 128.307 129.965 128.404 129.929C128.5 129.893 128.588 129.839 128.663 129.771C128.738 129.703 128.798 129.621 128.839 129.53C128.881 129.44 128.903 129.343 128.905 129.244C128.907 129.145 128.889 129.047 128.851 128.955C128.813 128.863 128.757 128.779 128.685 128.708C128.613 128.637 128.527 128.58 128.432 128.54C126.396 127.75 124.156 127.563 122.005 128.003C119.855 128.443 117.894 129.491 116.378 131.008C116.305 131.075 116.247 131.156 116.207 131.244C116.168 131.333 116.147 131.429 116.147 131.525C116.147 131.621 116.168 131.717 116.207 131.806C116.247 131.894 116.305 131.975 116.378 132.042C116.444 132.107 116.524 132.158 116.612 132.193C116.7 132.228 116.795 132.244 116.89 132.243C117.002 132.246 117.113 132.227 117.217 132.187C117.32 132.148 117.415 132.089 117.493 132.013C118.785 130.71 120.463 129.811 122.304 129.437C124.145 129.063 126.061 129.231 127.8 129.918V129.918ZM132.561 148.372C134.671 148.372 138.347 148.114 138.377 148.114V146.621C138.377 146.621 134.641 146.621 132.531 146.88C132.028 146.845 131.53 146.99 131.134 147.288C130.738 147.585 130.473 148.013 130.391 148.487C130.391 149.491 131.145 150.783 133.405 151.357C136.147 152.103 137.323 152.476 137.353 152.505H137.594C137.785 152.511 137.973 152.451 138.12 152.335C138.268 152.219 138.366 152.055 138.396 151.875C138.425 151.695 138.385 151.51 138.281 151.357C138.178 151.203 138.019 151.091 137.835 151.041C137.835 151.041 136.66 150.668 133.857 149.893C132.531 149.549 132.049 148.889 132.079 148.602C132.109 148.315 132.29 148.401 132.682 148.372H132.561ZM141.602 138.844C140.668 137.696 135.273 132.472 135.032 132.243C134.965 132.159 134.88 132.089 134.783 132.039C134.685 131.989 134.578 131.959 134.467 131.951C134.356 131.943 134.245 131.958 134.141 131.994C134.037 132.03 133.942 132.086 133.863 132.16C133.783 132.234 133.721 132.323 133.68 132.421C133.64 132.519 133.621 132.624 133.626 132.73C133.632 132.835 133.66 132.938 133.71 133.032C133.76 133.127 133.831 133.209 133.917 133.276C135.846 135.141 139.643 139.016 140.336 139.762C140.547 140.02 139.764 141.254 138.588 142.259C138.453 142.406 138.378 142.594 138.378 142.79C138.378 142.985 138.453 143.174 138.588 143.321C138.665 143.4 138.759 143.464 138.862 143.509C138.966 143.553 139.078 143.577 139.191 143.579C139.286 143.581 139.381 143.564 139.469 143.53C139.557 143.495 139.637 143.443 139.703 143.378C140.186 142.919 142.868 140.451 141.602 138.844ZM141.602 133.678C141.499 133.662 141.394 133.667 141.293 133.69C141.192 133.714 141.097 133.756 141.013 133.815C140.929 133.874 140.858 133.947 140.804 134.032C140.75 134.117 140.714 134.211 140.698 134.309C140.682 134.407 140.687 134.507 140.711 134.603C140.736 134.7 140.781 134.79 140.842 134.87C140.904 134.95 140.981 135.018 141.07 135.069C141.159 135.121 141.258 135.155 141.361 135.17L145.339 135.744C145.527 135.746 145.71 135.683 145.854 135.567C145.998 135.451 146.093 135.29 146.122 135.113C146.14 135.014 146.136 134.914 146.112 134.817C146.087 134.72 146.043 134.629 145.981 134.549C145.92 134.469 145.842 134.401 145.752 134.35C145.662 134.299 145.563 134.266 145.459 134.252L141.602 133.678ZM128.071 136.06C128.038 135.964 127.984 135.876 127.913 135.802C127.842 135.727 127.756 135.668 127.659 135.627C127.563 135.587 127.458 135.566 127.352 135.566C127.247 135.566 127.143 135.588 127.046 135.629L123.249 136.949C123.057 137.026 122.903 137.17 122.819 137.351C122.735 137.533 122.727 137.738 122.797 137.925C122.857 138.069 122.961 138.192 123.095 138.279C123.23 138.366 123.388 138.413 123.55 138.413H123.822L127.619 137.093C127.716 137.05 127.803 136.989 127.875 136.913C127.948 136.838 128.004 136.75 128.04 136.654C128.077 136.558 128.093 136.456 128.088 136.354C128.083 136.252 128.056 136.152 128.011 136.06H128.071ZM89.6773 148.544C88.4789 146.522 88.1235 144.145 88.6819 141.885C89.2403 139.625 90.6715 137.648 92.6909 136.347L99.7127 140.25C99.7127 140.25 119.542 128.54 126.835 110.344L138.197 114.247C136.266 109.941 133.067 106.259 128.986 103.647C124.906 101.034 120.119 99.6023 115.203 99.5242C97.784 99.065 77.2009 106.441 70.9025 126.904C64.604 147.368 69.2148 179.34 90.28 183.042C111.345 186.744 123.912 169.926 104.324 151.988C104.444 152.017 94.0471 155.92 89.6773 148.544ZM168.453 193.661C168.453 194.092 169.056 194.465 169.719 194.465C170.382 194.465 170.985 194.092 170.985 193.661C170.985 193.231 170.412 192.886 169.719 192.886C169.026 192.886 168.453 193.259 168.453 193.661ZM169.719 191.365C170.178 191.436 170.606 191.63 170.952 191.925C171.299 192.22 171.55 192.603 171.676 193.028C171.803 193.454 171.799 193.906 171.665 194.33C171.531 194.753 171.273 195.132 170.921 195.421C170.569 195.71 170.137 195.897 169.677 195.96C169.218 196.024 168.748 195.961 168.324 195.779C167.901 195.597 167.54 195.304 167.286 194.934C167.031 194.564 166.892 194.132 166.886 193.69C166.94 193.025 167.268 192.407 167.799 191.971C168.33 191.536 169.02 191.318 169.719 191.365V191.365ZM144.827 180.832C144.164 180.832 143.561 181.205 143.561 181.636C143.561 182.066 144.164 182.411 144.827 182.411C145.49 182.411 146.122 182.038 146.122 181.636C146.122 181.234 145.52 180.832 144.827 180.832V180.832ZM144.827 179.34C145.287 179.411 145.715 179.606 146.063 179.902C146.41 180.198 146.661 180.582 146.786 181.01C146.911 181.437 146.905 181.89 146.769 182.314C146.633 182.739 146.372 183.117 146.017 183.405C145.662 183.692 145.228 183.877 144.766 183.937C144.305 183.998 143.835 183.931 143.412 183.745C142.989 183.559 142.63 183.261 142.379 182.888C142.128 182.514 141.994 182.08 141.994 181.636C142.055 180.976 142.387 180.365 142.917 179.935C143.447 179.506 144.133 179.292 144.827 179.34V179.34ZM154.229 228.13C151.215 230.742 149.377 232.464 149.317 232.55C149.244 232.617 149.186 232.697 149.146 232.786C149.107 232.875 149.086 232.97 149.086 233.067C149.086 233.163 149.107 233.259 149.146 233.347C149.186 233.436 149.244 233.516 149.317 233.583C149.387 233.663 149.474 233.728 149.573 233.773C149.672 233.817 149.78 233.841 149.889 233.842C150.089 233.836 150.281 233.765 150.432 233.641C150.673 233.411 175.596 210.853 186.053 202.845C196.51 194.838 201.121 196.531 201.121 196.531C201.218 196.567 201.321 196.584 201.425 196.58C201.528 196.576 201.63 196.552 201.724 196.508C201.817 196.465 201.9 196.404 201.967 196.329C202.035 196.254 202.085 196.167 202.116 196.072C202.183 195.886 202.17 195.681 202.08 195.504C201.989 195.326 201.829 195.19 201.633 195.125C199.904 194.763 198.102 194.893 196.45 195.498C191.839 184.362 173.818 178.278 173.034 178.278C172.935 178.247 172.831 178.235 172.727 178.242C172.623 178.25 172.522 178.278 172.429 178.323C172.337 178.368 172.255 178.431 172.188 178.507C172.121 178.583 172.07 178.671 172.04 178.766C171.972 178.952 171.985 179.157 172.075 179.334C172.166 179.512 172.326 179.648 172.522 179.713C172.703 179.713 190.603 185.682 194.943 196.129C191.384 197.545 188.08 199.482 185.149 201.869C177.826 207.61 163.511 220.123 155.404 227.384C155.353 227.262 155.27 227.153 155.163 227.068L119.964 201.927C119.791 201.813 119.578 201.767 119.37 201.799C119.162 201.831 118.975 201.938 118.849 202.099C118.731 202.259 118.683 202.458 118.717 202.651C118.751 202.844 118.863 203.017 119.03 203.132L154.078 228.073L154.229 228.13ZM417.107 241.533L435.611 164.042C435.655 163.848 435.616 163.646 435.503 163.479C435.39 163.312 435.212 163.195 435.008 163.153C434.804 163.111 434.591 163.148 434.416 163.255C434.241 163.363 434.118 163.533 434.074 163.727L416.294 238.348C413.792 241.447 407.855 246.355 395.198 246.556C389.942 246.676 384.733 245.588 380.012 243.385C375.291 241.182 371.197 237.928 368.076 233.899C368.076 233.899 305.905 219.979 278.179 217.138L233.698 212.546C233.698 212.546 225.772 212.288 216.792 212.546C211.458 214.297 199.855 231.861 190.332 246.986C185.381 252.695 179.608 257.71 173.185 261.882C173.095 261.932 173.017 261.999 172.954 262.078C172.892 262.158 172.847 262.248 172.822 262.344C172.796 262.44 172.791 262.54 172.807 262.638C172.823 262.736 172.859 262.83 172.914 262.915C172.989 263.023 173.093 263.112 173.214 263.172C173.335 263.232 173.47 263.262 173.607 263.259C173.745 263.295 173.89 263.295 174.029 263.259C178.447 260.402 182.565 257.143 186.324 253.53C182.527 259.643 179.363 264.781 177.494 267.507C183.384 276.474 191.626 283.823 201.408 288.831C211.19 293.839 222.174 296.332 233.276 296.064H303.976C303.976 296.064 313.288 277.868 325.704 275.285L415.329 256.63L417.107 241.533ZM378.232 333.948C378.232 333.75 378.149 333.561 378.002 333.421C377.855 333.281 377.656 333.202 377.448 333.202H356.021C355.903 333.18 355.782 333.183 355.665 333.211C355.549 333.24 355.441 333.292 355.348 333.365C355.255 333.437 355.181 333.529 355.129 333.632C355.078 333.735 355.052 333.848 355.052 333.963C355.052 334.077 355.078 334.19 355.129 334.293C355.181 334.397 355.255 334.488 355.348 334.561C355.441 334.633 355.549 334.686 355.665 334.714C355.782 334.742 355.903 334.745 356.021 334.723H377.448C377.659 334.716 377.858 334.631 378.004 334.486C378.15 334.342 378.232 334.149 378.232 333.948ZM379.648 205.888H379.799C379.978 205.884 380.15 205.822 380.287 205.713C380.424 205.603 380.518 205.452 380.552 205.285L382.873 194.551C382.894 194.454 382.895 194.355 382.874 194.258C382.854 194.161 382.812 194.07 382.753 193.989C382.694 193.908 382.617 193.84 382.529 193.789C382.441 193.737 382.342 193.703 382.24 193.69C382.139 193.669 382.034 193.667 381.933 193.684C381.831 193.702 381.734 193.738 381.647 193.792C381.56 193.845 381.485 193.914 381.427 193.995C381.368 194.076 381.327 194.168 381.305 194.264L379.015 204.998C378.993 205.096 378.993 205.197 379.013 205.296C379.033 205.394 379.074 205.488 379.133 205.571C379.192 205.654 379.268 205.725 379.357 205.779C379.445 205.834 379.544 205.87 379.648 205.888V205.888ZM438.564 109.512C438.356 109.512 438.157 109.591 438.01 109.73C437.863 109.87 437.781 110.06 437.781 110.258C437.789 110.459 437.878 110.648 438.029 110.788C438.181 110.927 438.384 111.004 438.594 111.004V111.004L486.421 109.77C486.628 109.77 486.828 109.692 486.975 109.552C487.122 109.412 487.204 109.222 487.204 109.024C487.204 108.826 487.122 108.636 486.975 108.496C486.828 108.356 486.628 108.278 486.421 108.278L438.564 109.512ZM426.51 96.0514L429.041 104.26C440.282 95.3339 440.583 90.9428 426.389 96.1375L426.51 96.0514ZM433.592 62.4434H433.803C433.974 62.4431 434.14 62.3897 434.276 62.2913C434.412 62.1928 434.51 62.0548 434.556 61.8981C434.982 60.8592 435.13 59.736 434.988 58.6291C434.846 57.5222 434.418 56.4661 433.742 55.5553C432.824 54.6742 431.722 53.9865 430.508 53.5366C429.293 53.0867 427.992 52.8847 426.691 52.9436C426.586 52.9433 426.483 52.9635 426.388 53.0031C426.292 53.0427 426.206 53.1008 426.135 53.1736C426.065 53.2464 426.01 53.3325 425.976 53.4263C425.942 53.52 425.929 53.6195 425.937 53.7185C425.941 53.8165 425.965 53.9128 426.008 54.002C426.051 54.0911 426.112 54.1713 426.188 54.2379C426.263 54.3045 426.352 54.3563 426.449 54.3903C426.545 54.4243 426.648 54.4398 426.751 54.436C427.809 54.3949 428.865 54.5538 429.858 54.9035C430.851 55.2533 431.762 55.787 432.537 56.4737C433.023 57.2161 433.325 58.0546 433.419 58.9251C433.513 59.7956 433.397 60.6751 433.079 61.4963C433.019 61.5855 432.98 61.687 432.967 61.7927C432.955 61.8984 432.968 62.0055 433.006 62.1056C433.044 62.2058 433.105 62.2961 433.186 62.3697C433.267 62.4432 433.364 62.4979 433.471 62.5295L433.592 62.4434ZM405.535 75.3011C404.124 76.8491 402.179 77.8668 400.05 78.1711C399.842 78.1711 399.643 78.2498 399.496 78.3897C399.349 78.5297 399.267 78.7195 399.267 78.9174C399.267 79.1153 399.349 79.3051 399.496 79.445C399.643 79.5849 399.842 79.6636 400.05 79.6636V79.6636C402.64 79.3056 404.995 78.0357 406.65 76.1047C406.706 76.0219 406.744 75.9294 406.762 75.8325C406.78 75.7357 406.777 75.6364 406.755 75.5404C406.733 75.4443 406.691 75.3535 406.631 75.273C406.572 75.1926 406.496 75.1241 406.409 75.0715C406.231 75.0041 406.033 74.9988 405.851 75.0565C405.669 75.1143 405.515 75.2314 405.414 75.3872L405.535 75.3011ZM393.812 57.593C393.812 62.2425 396.434 66.0309 399.658 66.0309C402.883 66.0309 405.505 62.2425 405.505 57.593C405.505 52.9436 402.762 49.2412 399.538 49.2412C396.313 49.2412 393.691 53.0297 393.691 57.6791L393.812 57.593ZM392.245 57.593C392.245 52.1113 395.56 47.6627 399.658 47.6627C401.263 47.836 402.77 48.4825 403.969 49.5116C405.169 50.5408 406.001 51.9013 406.349 53.4028L409.694 52.3696C404.927 48.6985 401.18 43.9676 398.784 38.5934C397.284 35.2914 396.508 31.7318 396.505 28.1337C396.503 24.5356 397.273 20.975 398.769 17.671C400.265 14.367 402.456 11.3895 405.205 8.9216C407.954 6.45373 411.205 4.54769 414.757 3.32075C428.8 -1.7879 449.232 -0.639893 458.394 4.29656C458.394 4.29656 472.618 -5.40414 484.914 5.61677C497.209 16.6377 496.968 37.8759 480.574 42.9272C480.574 42.9272 486.24 73.6939 457.43 80.3811C457.43 80.3811 440.192 78.3147 430.518 69.1019C432.938 68.1458 434.982 66.4902 436.36 64.3686C437.739 62.2469 438.384 59.7665 438.203 57.2773C437.359 48.6672 424.039 49.643 423.376 49.7004L422.502 59.7169C418.408 58.1945 414.563 56.1266 411.08 53.575L406.65 54.9239C406.85 55.8687 406.951 56.8301 406.951 57.7939C406.951 63.2757 403.636 67.7242 399.538 67.7242C395.439 67.7242 392.124 63.1609 392.124 57.6791L392.245 57.593ZM396.826 59.4298C396.834 58.9477 397.04 58.4878 397.401 58.1495C397.762 57.8112 398.248 57.6217 398.754 57.6217C399.258 57.6217 399.741 57.8122 400.097 58.1513C400.453 58.4904 400.653 58.9503 400.653 59.4298C400.653 59.9121 400.454 60.375 400.099 60.7186C399.743 61.0623 399.261 61.2591 398.754 61.2667C398.499 61.2822 398.242 61.249 398 61.169C397.758 61.089 397.535 60.9639 397.344 60.8009C397.153 60.6379 396.998 60.4403 396.889 60.2197C396.779 59.999 396.717 59.7598 396.705 59.5159L396.826 59.4298Z" fill="#27475C"/>
</svg>
