<svg xmlns="http://www.w3.org/2000/svg" xmlns:xlink="http://www.w3.org/1999/xlink" viewBox="0 0 267.94 117.06"><defs><style>.cls-1{fill:none;}.cls-2{clip-path:url(#clip-path);}.cls-3{fill:#afe9f0;}.cls-4{fill:#fff;}</style><clipPath id="clip-path" transform="translate(0.26 -0.01)"><rect class="cls-1" width="267.68" height="117.1"/></clipPath></defs><g id="Слой_2" data-name="Слой 2"><g id="Слой_1-2" data-name="Слой 1"><g class="cls-2"><path class="cls-3" d="M22.63,90H241.54a22.83,22.83,0,0,0,22.87-22.79V26.05A22.83,22.83,0,0,0,241.53,3.26H22.63A22.84,22.84,0,0,0-.26,26.05V67.24A22.85,22.85,0,0,0,22.63,90Z" transform="translate(0.26 -0.01)"/><path class="cls-4" d="M25.9,86.78H244.8A22.83,22.83,0,0,0,267.68,64V22.8A22.83,22.83,0,0,0,244.8,0H25.9A22.84,22.84,0,0,0,3,22.8V64A22.84,22.84,0,0,0,25.9,86.78Z" transform="translate(0.26 -0.01)"/><path class="cls-4" d="M3,110.55a3.26,3.26,0,1,1-3.27,3.26A3.26,3.26,0,0,1,3,110.55ZM-.25,97.28a4.84,4.84,0,1,0,4.84-4.82A4.82,4.82,0,0,0-.25,97.28Z" transform="translate(0.26 -0.01)"/></g></g></g></svg>