<svg xmlns="http://www.w3.org/2000/svg" xmlns:xlink="http://www.w3.org/1999/xlink" viewBox="0 0 119.33 52.53"><defs><style>.cls-1{fill:none;}.cls-2{clip-path:url(#clip-path);}.cls-3{fill:#6eebdc;}.cls-4{fill:#afe9f0;}</style><clipPath id="clip-path" transform="translate(0 0)"><rect class="cls-1" width="119.35" height="52.54"/></clipPath></defs><g id="Слой_2" data-name="Слой 2"><g id="Слой_1-2" data-name="Слой 1"><g class="cls-2"><path class="cls-3" d="M109.14,40.4H11.64A10.2,10.2,0,0,1,1.46,30.18V11.69A10.21,10.21,0,0,1,11.65,1.46h97.49a10.21,10.21,0,0,1,10.19,10.23V30.17A10.21,10.21,0,0,1,109.14,40.4Z" transform="translate(0 0)"/><path class="cls-4" d="M107.69,38.94H10.19A10.21,10.21,0,0,1,0,28.71V10.23A10.21,10.21,0,0,1,10.19,0h97.5a10.21,10.21,0,0,1,10.19,10.23V28.71A10.21,10.21,0,0,1,107.69,38.94Z" transform="translate(0 0)"/><path class="cls-4" d="M117.88,49.61a1.46,1.46,0,1,0,1.45,1.46A1.46,1.46,0,0,0,117.88,49.61Zm1.45-6a2.16,2.16,0,1,1-2.15-2.16A2.15,2.15,0,0,1,119.33,43.65Z" transform="translate(0 0)"/></g></g></g></svg>