<svg xmlns="http://www.w3.org/2000/svg" xmlns:xlink="http://www.w3.org/1999/xlink" viewBox="0 0 263.43 115.55"><defs><style>.cls-1{fill:none;}.cls-2{clip-path:url(#clip-path);}.cls-3{fill:#afe9f0;}.cls-4{fill:#fff;}</style><clipPath id="clip-path" transform="translate(0 -0.02)"><rect class="cls-1" width="263.47" height="115.6"/></clipPath></defs><g id="Слой_2" data-name="Слой 2"><g id="Слой_1-2" data-name="Слой 1"><g class="cls-2"><path class="cls-3" d="M240.94,88.88H25.7A22.49,22.49,0,0,1,3.22,66.38V25.72A22.49,22.49,0,0,1,25.71,3.22H240.94a22.49,22.49,0,0,1,22.49,22.5V66.38A22.5,22.5,0,0,1,240.94,88.88Z" transform="translate(0 -0.02)"/><rect class="cls-4" width="260.22" height="85.65" rx="22.5"/><path class="cls-4" d="M260.22,109.13a3.22,3.22,0,1,0,3.21,3.22A3.22,3.22,0,0,0,260.22,109.13ZM263.43,96a4.76,4.76,0,1,1-4.76-4.76A4.76,4.76,0,0,1,263.43,96Z" transform="translate(0 -0.02)"/></g></g></g></svg>