<svg width="31" height="80" viewBox="0 0 31 80" fill="none" xmlns="http://www.w3.org/2000/svg">
<path d="M20.8275 58.8616C18.808 58.8551 16.832 59.4695 15.1497 60.6269C13.4675 61.7843 12.1546 63.4327 11.3774 65.3634C10.6002 67.2941 10.3937 69.4202 10.7838 71.4726C11.174 73.525 12.1433 75.4113 13.5691 76.8927C14.9949 78.3741 16.8131 79.384 18.7934 79.7945C20.7737 80.205 22.827 79.9976 24.6934 79.1986C26.5598 78.3996 28.1554 77.045 29.278 75.3062C30.4007 73.5674 31 71.5226 31 69.4308C31 66.6334 29.9293 63.95 28.0225 61.9688C26.1156 59.9877 23.5283 58.8703 20.8275 58.8616ZM31 15.7642C31 18.8543 30.1153 21.8751 28.4578 24.4444C26.8003 27.0138 24.4444 29.0164 21.6881 30.1989C18.9318 31.3815 15.8988 31.6909 12.9727 31.088C10.0466 30.4852 7.35878 28.9971 5.24918 26.812C3.13958 24.627 1.70294 21.843 1.1209 18.8123C0.538865 15.7815 0.837597 12.64 1.9793 9.78511C3.12101 6.93018 5.0544 4.49004 7.53503 2.77325C10.0157 1.05645 12.9321 0.140106 15.9156 0.140106C19.9162 0.140106 23.753 1.78621 26.5819 4.71629C29.4107 7.64637 31 11.6204 31 15.7642V15.7642Z" fill="white"/>
</svg>
