<svg width="31" height="80" viewBox="0 0 31 80" fill="none" xmlns="http://www.w3.org/2000/svg">
<path d="M10.3777 58.8451C12.4226 58.8515 14.4198 59.4773 16.117 60.6434C17.8142 61.8096 19.1353 63.4638 19.9136 65.3972C20.6918 67.3305 20.8921 69.4562 20.4893 71.5059C20.0866 73.5556 19.0987 75.4373 17.6505 76.9134C16.2024 78.3894 14.3588 79.3936 12.3528 79.7991C10.3467 80.2046 8.2681 79.9933 6.37947 79.1917C4.49083 78.3902 2.87687 77.0345 1.74144 75.2957C0.606 73.557 9.62081e-06 71.5132 1.14513e-10 69.4225C-6.4046e-06 68.0308 0.268649 66.6526 0.790568 65.3672C1.31249 64.0818 2.07741 62.9143 3.04149 61.9316C4.00557 60.949 5.14985 60.1706 6.40875 59.6409C7.66765 59.1112 9.01642 58.8408 10.3777 58.8451V58.8451ZM0.0634725 15.7888C0.0509077 18.8975 0.941085 21.9401 2.62124 24.5311C4.3014 27.1221 6.69594 29.145 9.50154 30.3436C12.3071 31.5421 15.3976 31.8624 18.3814 31.2638C21.3651 30.6652 24.108 29.1747 26.2626 26.9811C28.4171 24.7874 29.8863 21.9894 30.4842 18.9413C31.082 15.8933 30.7816 12.7324 29.6209 9.85911C28.4602 6.98579 26.4915 4.52933 23.9641 2.80086C21.4368 1.07239 18.4645 0.149697 15.4238 0.149671C13.4097 0.141126 11.4137 0.53934 9.55045 1.32145C7.68722 2.10357 5.99341 3.25418 4.56624 4.70726C3.13906 6.16034 2.00662 7.88726 1.23392 9.78893C0.461214 11.6906 0.0634551 13.7296 0.0634725 15.7888V15.7888Z" fill="white"/>
</svg>
