<svg xmlns="http://www.w3.org/2000/svg" xmlns:xlink="http://www.w3.org/1999/xlink" viewBox="0 0 138.75 141.12"><defs><style>.cls-1{fill:none;}.cls-2{clip-path:url(#clip-path);}.cls-3{fill:#fff;}</style><clipPath id="clip-path" transform="translate(-0.06 0)"><rect class="cls-1" width="138.87" height="141.12"/></clipPath></defs><g id="Слой_2" data-name="Слой 2"><g id="Слой_1-2" data-name="Слой 1"><g class="cls-2"><path class="cls-3" d="M34.14,10.74c1.2,0,2.41,0,3.61,0h67.52l3.51,0V8.51h-.5c-1.38,0-2.76,0-4.14,0H36.53c-1.87,0-3.74.09-5.62.15l-.66,0v2.09c1.29,0,2.58,0,3.89,0" transform="translate(-0.06 0)"/><path class="cls-3" d="M132,35.25V103c0,1.27,0,2.53,0,3.8s0,2.28,0,3.41h2.21c.11-3.76,0-7.56,0-11.32V33.86c0-.65,0-1.3-.08-2h-2.22c.08,1.12.12,2.23.12,3.35" transform="translate(-0.06 0)"/><path class="cls-3" d="M111.15,10.65c1.7,0,3.39.24,5.1.17a23.5,23.5,0,0,0,4.63-.6,5.92,5.92,0,0,1-1-2l-.1,0c-3.62.78-7.35.28-11,.27v2.17l2.37,0" transform="translate(-0.06 0)"/><path class="cls-3" d="M122.91,9.57l.24-.11A3.76,3.76,0,0,1,122,7.63a16.27,16.27,0,0,1-2.11.59,5.92,5.92,0,0,0,1,2,14.53,14.53,0,0,0,2-.65" transform="translate(-0.06 0)"/><path class="cls-3" d="M132.13,10.54a2.4,2.4,0,0,1,3.4-.83c1.32,1-.14,2-1.12,2.28a9,9,0,0,1-2.76.19,8.76,8.76,0,0,0,.09,2.11c2,.14,4.56,0,5.81-1.73,1.65-2.24-.17-5-2.63-5.38-2.67-.45-4.92,1.73-5.35,4.22l-.06.49a16.94,16.94,0,0,0,2.14.29,4.31,4.31,0,0,1,.48-1.64" transform="translate(-0.06 0)"/><path class="cls-3" d="M122,5.44c.15-.72,1.1-3.43,2.18-3.27s.71,2.66.5,3.27A4.09,4.09,0,0,1,122,7.63a3.76,3.76,0,0,0,1.14,1.83,6.21,6.21,0,0,0,3.76-3.86c.51-1.79-.16-5.74-2.68-5.6-2.75.16-4.31,3.6-4.51,6a6.29,6.29,0,0,0,.18,2.23A16.27,16.27,0,0,0,122,7.63a4.6,4.6,0,0,1,0-2.19" transform="translate(-0.06 0)"/><path class="cls-3" d="M129.48,14.05c.19,2.4,1,4.84,1.35,7.11s.48,4.82.72,7.21c.13,1.18.24,2.36.31,3.53h2.22c-.1-1.49-.29-3-.45-4.45-.26-2.44-.36-4.9-.78-7.32-.3-1.72-.71-3.43-1-5.16,0-.22-.07-.45-.1-.68l-.66,0c-.53-.05-1.06-.11-1.6-.19" transform="translate(-0.06 0)"/><path class="cls-3" d="M120.88,10.22a7.7,7.7,0,0,0,3,2.33,19.19,19.19,0,0,0,5.64,1.5,12,12,0,0,1,0-2.16c-.68-.12-1.33-.28-1.95-.43a10.06,10.06,0,0,1-4.41-2l-.24.11a14.53,14.53,0,0,1-2,.65" transform="translate(-0.06 0)"/><path class="cls-3" d="M129.48,14.05c.54.08,1.07.14,1.6.19l.66,0a8.76,8.76,0,0,1-.09-2.11,16.94,16.94,0,0,1-2.14-.29,12,12,0,0,0,0,2.16" transform="translate(-0.06 0)"/><path class="cls-3" d="M108.33,132.55l-2.23,0H35.2a1.09,1.09,0,0,1,0,2.17h70.61c1,0,2,0,3,0v-2.23h-.45" transform="translate(-0.06 0)"/><path class="cls-3" d="M35.2,132.57a1.09,1.09,0,0,0,0,2.17,1.09,1.09,0,0,0,0-2.17" transform="translate(-0.06 0)"/><path class="cls-3" d="M35.2,132.57c-1.66,0-3.3-.09-5-.17v2.28l.73,0,4.22,0a1.09,1.09,0,0,1,0-2.17" transform="translate(-0.06 0)"/><path class="cls-3" d="M115.62,132.14c-2.3.12-4.54.34-6.84.4v2.23a27.24,27.24,0,0,0,3.74-.18,99.59,99.59,0,0,1,12.09-.35l1.49,0a16.7,16.7,0,0,1,.34-2.18c-3.6.11-7.21-.08-10.82.11" transform="translate(-0.06 0)"/><path class="cls-3" d="M128.38,134.09c.48,0,1-.08,1.44-.14,1.31-.15,3.24-.57,4,.79,1.08,1.89-1.38,4.41-3.25,4.16-2.33-.31-2.44-2.92-2.2-4.81q-1.14.09-2.28.12c-.23,2.59.34,5,2.73,6.37,4.25,2.37,9.41-3.59,6.53-7.47-1.49-2-4.26-1.5-6.56-1.23-.12.51-.23,1-.32,1.54a6.32,6.32,0,0,0-.1.67" transform="translate(-0.06 0)"/><path class="cls-3" d="M134.18,110.24H132c-.06,1.84-.16,3.68-.33,5.53-.15,1.67-.37,3.47-.4,5.27a1,1,0,0,1,.15-.13,6.81,6.81,0,0,1,2.13-1.2c.08-1.85.27-3.7.44-5.54.11-1.3.18-2.61.22-3.93" transform="translate(-0.06 0)"/><path class="cls-3" d="M126.44,132a16.7,16.7,0,0,0-.34,2.18q1.14,0,2.28-.12a6.32,6.32,0,0,1,.1-.67c.09-.51.2-1,.32-1.54-.41.05-.81.09-1.18.11l-1.18,0" transform="translate(-0.06 0)"/><path class="cls-3" d="M131.24,121a15.77,15.77,0,0,0,.25,3.45,9,9,0,0,1,1.17-1.8,3.49,3.49,0,0,1,.82-.64c0-.33,0-.65,0-1q0-.69,0-1.38a6.81,6.81,0,0,0-2.13,1.2,1,1,0,0,0-.15.13" transform="translate(-0.06 0)"/><path class="cls-3" d="M133.48,122.05c.84-.5,2-.78,2.64-.2,1,.92.34,3.26-.11,4.29-.53,1.2-1.16.86-1.74-.09a7.54,7.54,0,0,1-.79-4,3.49,3.49,0,0,0-.82.64,9,9,0,0,0-1.17,1.8,9.87,9.87,0,0,0,.76,2.4c.92,1.92,3.07,3,4.83,1.49s2.33-5.7.91-7.66c-1.07-1.49-2.87-1.57-4.47-1q0,.69,0,1.38c0,.31,0,.63,0,1" transform="translate(-0.06 0)"/><path class="cls-3" d="M131.24,121c-1.59,1.43-2.44,4-3.17,5.88a36.78,36.78,0,0,0-1.63,5.11l1.18,0c.37,0,.77-.06,1.18-.11a32.78,32.78,0,0,1,2.29-6.57l.4-.82a15.77,15.77,0,0,1-.25-3.45" transform="translate(-0.06 0)"/><path class="cls-3" d="M9.82,106.35c-.1-12.94,0-25.88,0-38.81V42.13c0-3.39-.11-6.83,0-10.23H7.69c-.07,3.16-.05,6.32-.05,9.48V93.31c0,4.11,0,8.23,0,12.35,0,1.54.06,3.06.13,4.58H9.94c-.06-1.29-.11-2.59-.12-3.89" transform="translate(-0.06 0)"/><path class="cls-3" d="M13.34,10.65c.62.09,1.24.15,1.85.19,4,.26,8-.19,12-.1l3.08,0V8.7c-3.07.06-6.14-.15-9.21-.06a45.6,45.6,0,0,1-6.72,0v0a17.67,17.67,0,0,1-1,2" transform="translate(-0.06 0)"/><path class="cls-3" d="M10.87,7.73c-1.41-.68-3.24-2.34-2.24-4A2.91,2.91,0,0,1,11.9,2.57c2,.69.8,4.46.26,5.65h0a11.82,11.82,0,0,0,2.16.44c.85-2.08,1.35-4.79,0-6.79C12.39-1,7.82.26,6.52,3.07A4.38,4.38,0,0,0,7.62,8a7.92,7.92,0,0,0,3.49,2.17,15.08,15.08,0,0,0,1.05-1.91,8,8,0,0,1-1.29-.5" transform="translate(-0.06 0)"/><path class="cls-3" d="M14.31,8.7v0a11.82,11.82,0,0,1-2.16-.44,15.08,15.08,0,0,1-1.05,1.91,12.88,12.88,0,0,0,2.23.51,17.67,17.67,0,0,0,1-2" transform="translate(-0.06 0)"/><path class="cls-3" d="M8.69,15.65a14.54,14.54,0,0,0-.71-2,5.47,5.47,0,0,1-1.9.92c.26.7.45,1.41.59,1.93a.11.11,0,0,1,0,.05A6.64,6.64,0,0,0,8,16.05c.24-.12.48-.26.71-.4" transform="translate(-0.06 0)"/><path class="cls-3" d="M9.9,30.17a51.83,51.83,0,0,0-.76-12.62c-.12-.6-.26-1.25-.45-1.9-.23.14-.47.28-.71.4a6.64,6.64,0,0,1-1.3.49,43.89,43.89,0,0,1,1.07,13c0,.78,0,1.55-.06,2.33H9.82c0-.58,0-1.15.08-1.73" transform="translate(-0.06 0)"/><path class="cls-3" d="M6.08,14.56a3.56,3.56,0,0,1-1.34.07,3.16,3.16,0,0,1-2.55-1.87c-.28-.86,1.47-.79,1.95-.62a3.77,3.77,0,0,1,1.94,2.42A5.47,5.47,0,0,0,8,13.64C6.93,11.25,5.16,9.33,2.21,10c-2.4.56-2.75,3.16-1.27,4.84a5.5,5.5,0,0,0,5.74,1.68.11.11,0,0,0,0-.05c-.14-.52-.33-1.23-.59-1.93" transform="translate(-0.06 0)"/><path class="cls-3" d="M13.34,10.65a12.88,12.88,0,0,1-2.23-.51A12.93,12.93,0,0,1,8,13.64a14.54,14.54,0,0,1,.71,2,14.23,14.23,0,0,0,4.65-5" transform="translate(-0.06 0)"/><path class="cls-3" d="M19.08,131.88c-1.38,0-2.78,0-4.17.09a10.22,10.22,0,0,1,0,2.14s0,.06,0,.1c2.2-.12,4.4-.18,6.62-.12,2.9.08,5.81.5,8.71.59V132.4c-3.72-.2-7.43-.49-11.17-.52" transform="translate(-0.06 0)"/><path class="cls-3" d="M14.91,132l-2.21.14s0,.1,0,.14a6.31,6.31,0,0,1,0,2.08c.74,0,1.47-.09,2.21-.12,0,0,0-.06,0-.1a10.22,10.22,0,0,0,0-2.14" transform="translate(-0.06 0)"/><path class="cls-3" d="M13,125.89a9.54,9.54,0,0,0-2.75-3.58,24.93,24.93,0,0,1-.28,2.74,14.05,14.05,0,0,1,2.7,7.06l2.21-.14A19.14,19.14,0,0,0,13,125.89" transform="translate(-0.06 0)"/><path class="cls-3" d="M10.28,122.31c.13-2.33,0-4.69-.08-6.91-.07-1.72-.18-3.44-.26-5.16H7.77c.06,1.39.14,2.78.21,4.18a69.46,69.46,0,0,1,.14,7.23h.1a3.36,3.36,0,0,1,2.06.67" transform="translate(-0.06 0)"/><path class="cls-3" d="M8.22,121.64h-.1c0,.76-.1,1.52-.19,2.27.49-.15.87,0,1.41.46a6,6,0,0,1,.66.67,24.93,24.93,0,0,0,.28-2.74,3.36,3.36,0,0,0-2.06-.67" transform="translate(-0.06 0)"/><path class="cls-3" d="M12.28,135.39a4.36,4.36,0,0,1-3.08,1.83c-.77,0-1.88-1.54-1.15-2.1s2.29-.64,3.32-.71l1.34-.08a6.31,6.31,0,0,0,0-2.08s0-.09,0-.14c-.92.07-1.83.16-2.74.26-2,.22-4.56,1-4.23,3.54.81,6.15,8.64,2.85,9.19-1.7-.74,0-1.47.08-2.21.12a2.86,2.86,0,0,1-.43,1.06" transform="translate(-0.06 0)"/><path class="cls-3" d="M9.34,124.38c-.54-.48-.92-.61-1.41-.46a21.86,21.86,0,0,1-.65,3.22c-.29,1-.84,2.54-2.11,2.54-2.6,0-1.39-2.36-.38-3.48a9.83,9.83,0,0,1,2.49-2,2.89,2.89,0,0,1,.65-.28c.09-.75.15-1.51.19-2.27C5,121.92-.4,127,1.84,130.23a4.18,4.18,0,0,0,4.63,1.39,5.37,5.37,0,0,0,2.78-3.51,17.31,17.31,0,0,0,.75-3.06,6,6,0,0,0-.66-.67" transform="translate(-0.06 0)"/></g></g></g></svg>