<svg width="650" height="300" viewBox="0 0 650 300" fill="none" xmlns="http://www.w3.org/2000/svg">
<path fill-rule="evenodd" clip-rule="evenodd" d="M466.892 35.8156C445.083 58.4797 423.403 82.6018 381.829 79.8124C338.307 76.8011 337.203 42.6306 360.96 29.0956C386.891 14.1975 440.734 29.3175 466.892 35.8156ZM298.907 144.096C306.793 133.477 319.97 125.711 334.38 127.328C348.141 128.849 358.883 140.007 363.589 152.052C371.8 172.783 362.55 193.069 348.53 209.489C338.663 220.286 326.721 229.084 313.382 235.386C309.637 232.46 306.507 228.854 304.164 224.767C289.917 201.374 281.251 167.901 298.907 144.096ZM597.263 127.169C606.696 133.28 615.244 140.605 622.675 148.946C621.051 150.519 619.28 151.941 617.385 153.193C556.565 194.115 504.572 182.926 485.586 156.775C457.902 118.801 498.99 63.7732 597.263 127.169V127.169ZM29.2409 254.976C1.07021 230.632 -8.82846 194.749 8.79443 163.273C25.8331 132.748 59.1641 123.556 94.0204 135.981C120.211 145.491 138.905 167.014 138.256 194.623C137.64 221.122 108.073 235.83 86.0041 223.721C75.9107 218.238 86.0041 218.586 89.0549 220.044C105.834 227.779 129.753 214.275 130.207 194.464C130.759 170.342 114.791 150.626 91.5863 143.494C62.9937 134.713 34.2064 143.145 19.5694 169.328C4.47796 196.398 12.2671 227.81 34.3363 248.763C88.925 291.333 222.573 268.859 285.471 247.051C291.605 244.927 297.284 242.708 302.574 240.458C301.018 238.31 299.587 236.077 298.29 233.77C282.582 206.319 274.566 162.005 293.747 134.523C302.996 121.242 318.574 112.049 335.386 113.983C352.197 115.916 365.893 129.039 371.93 144.223C382.153 170.025 373.001 199.314 355.41 219.823C346.247 230.118 335.252 238.71 322.956 245.181C368.068 284.328 490.682 300.05 569.611 276.879C629.166 259.096 661.62 217.001 629.555 159.057C628.743 157.489 627.844 155.965 626.861 154.493C625.79 155.285 624.654 156.046 623.421 156.839C546.601 204.703 497.757 187.395 478.771 157.473C450.178 112.493 489.189 38.8903 602.261 115.282C612.328 121.881 621.461 129.747 629.425 138.676C636.371 117.121 605.344 92.0478 587.948 82.2849C554.236 64.0494 518.455 49.7301 481.335 39.6193L474.844 37.8442C451.703 60.9521 428.109 86.9128 378.973 83.5528C318.639 79.4637 324.092 38.4782 358.786 24.4677C388.806 12.4224 442.681 25.2601 470.365 32.2654C475.071 27.479 479.777 22.756 484.775 18.5719C506.097 0.440602 543.94 -7.42051 577.985 8.87227L575.031 14.4828C545.173 0.250413 510.998 6.08285 490.649 22.9779C486.43 26.4964 482.341 30.3318 478.284 34.3258L482.535 35.4669C523.363 46.6246 565.165 62.0615 592.232 76.3256C616.476 89.0048 653.312 121.4 635.137 146.378C635.981 147.741 636.76 149.073 637.442 150.436C670.773 215.512 634.196 264.548 569.644 286.008C485.976 313.87 358.688 299.099 311.272 250.791C304.392 253.961 296.797 257.131 288.554 259.92C213.746 285.881 94.6371 306.802 28.7541 255.61L29.2409 254.976Z" fill="white"/>
</svg>
