<?xml version="1.0" encoding="UTF-8" standalone="no"?>
<!-- Generator: Gravit.io -->
<svg xmlns="http://www.w3.org/2000/svg" xmlns:xlink="http://www.w3.org/1999/xlink" style="isolation:isolate" viewBox="0 0 650 300" width="650pt" height="300pt"><defs><clipPath id="_clipPath_jSf5CGuFdc4hurOArCX1R20rtlK0CDVf"><rect width="650" height="300"/></clipPath></defs><g clip-path="url(#_clipPath_jSf5CGuFdc4hurOArCX1R20rtlK0CDVf)"><g><path d=" M 183.004 35.84 C 204.854 58.502 226.542 82.622 268.101 79.833 C 311.672 76.822 312.776 42.655 288.977 29.121 C 263.068 14.224 209.205 29.343 183.004 35.84 Z  M 351.087 144.11 C 332.259 118.771 295.633 123.157 285.641 154.008 C 279.435 173.171 287.206 191.131 298.852 206.388 C 306.787 216.785 318.006 225.245 329.323 231.604 C 329.323 231.604 336.704 235.392 336.704 235.392 C 342.308 235.511 350.467 216.696 352.088 213.153 C 361.927 191.645 366.105 164.349 351.087 144.11 L 351.087 144.11 L 351.087 144.11 L 351.087 144.11 Z  M 52.582 127.185 C 43.164 133.309 34.626 140.632 27.192 148.96 C 28.836 150.526 30.617 151.947 32.517 153.207 C 93.328 194.125 145.374 182.937 164.367 156.788 C 192.192 118.818 150.926 63.795 52.582 127.185 Z  M 620.762 254.98 C 648.944 230.638 658.814 194.759 641.217 163.286 C 624.171 132.764 590.795 123.572 555.957 135.996 C 529.756 145.505 511.055 167.026 511.704 194.632 C 512.321 221.129 541.866 235.836 563.976 223.728 C 574.074 218.245 563.976 218.594 560.925 220.052 C 544.106 227.785 520.21 214.283 519.756 194.474 C 519.171 170.354 535.145 150.64 558.392 143.508 C 586.996 134.729 615.795 143.16 630.405 169.34 C 645.535 196.407 637.742 227.817 615.665 248.768 C 561.054 291.334 427.353 268.862 364.464 247.056 C 358.328 244.932 352.646 242.714 347.354 240.463 C 348.9 238.308 350.33 236.076 351.639 233.776 C 367.354 206.328 375.373 162.018 356.185 134.539 C 346.899 121.258 331.315 112.067 314.497 114 C 297.679 115.934 284.01 129.055 277.938 144.237 C 267.711 170.037 276.899 199.323 294.497 219.83 C 303.661 230.128 314.661 238.719 326.964 245.186 C 282.029 284.139 159.367 299.987 80.374 276.659 C 20.666 259.1 -11.931 217.009 20.309 159.071 C 21.121 157.502 22.021 155.979 23.004 154.506 C 24.075 155.299 25.212 156.059 26.446 156.852 C 103.296 204.711 152.159 187.406 171.153 157.486 C 199.724 112.51 160.698 38.915 47.614 115.3 C 37.543 121.898 28.406 129.763 20.439 138.691 C 13.621 117.138 44.53 92.067 61.932 82.305 C 95.658 64.071 131.453 49.753 168.588 39.644 L 175.081 37.869 C 198.231 60.974 221.802 86.933 270.99 83.573 C 331.185 79.484 325.925 38.502 291.023 24.493 C 261.023 12.449 207.127 25.286 179.4 32.29 C 174.724 27.504 169.984 22.782 165.017 18.598 C 143.783 0.468 105.926 -7.455 72.062 8.899 L 74.984 14.509 C 109.817 -2.086 145.528 8.494 171.802 34.35 L 171.802 34.35 L 167.549 35.491 C 126.705 46.648 84.887 62.084 57.809 76.346 C 33.556 89.024 -3.295 121.417 14.855 146.392 C 14.011 147.755 13.264 149.087 12.55 150.449 C -20.762 215.519 15.796 264.552 80.374 286.009 C 164.107 313.869 291.412 299.099 338.88 250.796 C 346.348 254.212 353.987 257.259 361.769 259.924 C 436.444 285.882 555.567 306.801 621.509 255.455 L 620.762 254.98 L 620.762 254.98 Z " fill-rule="evenodd" fill="rgb(255,255,255)"/></g></g></svg>