<svg width="650" height="300" viewBox="0 0 650 300" fill="none" xmlns="http://www.w3.org/2000/svg">
<path fill-rule="evenodd" clip-rule="evenodd" d="M183.004 35.8401C204.854 58.502 226.542 82.622 268.101 79.8328C311.672 76.8218 312.776 42.6545 288.977 29.1207C263.068 14.224 209.205 29.3426 183.004 35.8401ZM351.087 144.11C343.198 133.493 329.984 125.727 315.601 127.344C301.802 128.865 291.055 140.022 286.38 152.066C278.133 172.794 287.419 193.079 301.445 209.497C311.341 220.307 323.323 229.106 336.704 235.392C340.459 232.475 343.592 228.868 345.925 224.774C360.081 201.383 368.75 167.913 351.087 144.11V144.11ZM52.5818 127.185C43.1643 133.309 34.6257 140.632 27.1923 148.96C28.8355 150.526 30.6173 151.947 32.5169 153.207C93.3284 194.125 145.374 182.937 164.367 156.788C192.192 118.818 150.926 63.7951 52.5818 127.185ZM620.762 254.98C648.944 230.638 658.814 194.759 641.217 163.286C624.171 132.764 590.795 123.572 555.957 135.996C529.756 145.505 511.055 167.026 511.704 194.632C512.321 221.129 541.866 235.836 563.976 223.728C574.074 218.245 563.976 218.594 560.925 220.052C544.106 227.785 520.21 214.283 519.756 194.474C519.171 170.354 535.145 150.64 558.392 143.508C586.996 134.729 615.795 143.16 630.405 169.34C645.535 196.407 637.742 227.817 615.665 248.768C561.054 291.334 427.353 268.862 364.464 247.056C358.328 244.932 352.646 242.714 347.354 240.463C348.9 238.308 350.33 236.076 351.639 233.776C367.354 206.328 375.373 162.018 356.185 134.539C346.899 121.258 331.315 112.067 314.497 114C297.679 115.934 284.01 129.055 277.938 144.237C267.711 170.037 276.899 199.323 294.497 219.83C303.661 230.128 314.661 238.719 326.964 245.186C282.029 284.139 159.367 299.987 80.3739 276.659C20.6663 259.1 -11.931 217.009 20.3092 159.071C21.1214 157.502 22.0211 155.979 23.004 154.506C24.0754 155.299 25.2118 156.059 26.4455 156.852C103.296 204.711 152.159 187.406 171.153 157.486C199.724 112.51 160.698 38.9145 47.6143 115.3C37.5431 121.898 28.4061 129.763 20.439 138.691C13.6209 117.138 44.5299 92.0671 61.9324 82.305C95.6576 64.0712 131.453 49.7533 168.588 39.6435L175.081 37.8685C198.231 60.9743 221.802 86.9325 270.99 83.5728C331.185 79.4842 325.925 38.5024 291.023 24.4932C261.023 12.4491 207.127 25.2856 179.4 32.2902C174.724 27.5043 169.984 22.7817 165.017 18.5979C143.783 0.468367 105.926 -7.4554 72.0623 8.89925L74.9843 14.5093C104.854 0.278195 139.043 6.11009 159.4 23.0036C163.653 26.5217 167.744 30.3568 171.802 34.3504L167.549 35.4914C126.705 46.6481 84.8869 62.0836 57.8091 76.3464C33.5559 89.0244 -3.29466 121.417 14.8546 146.392C14.0105 147.755 13.2637 149.087 12.5495 150.449C-20.7621 215.519 15.7962 264.552 80.3739 286.009C164.107 313.869 291.412 299.099 338.88 250.796C346.348 254.212 353.987 257.259 361.769 259.924C436.444 285.882 555.567 306.801 621.509 255.455L620.762 254.98Z" fill="white"/>
</svg>
